<?xml version="1.0" encoding="UTF-8"?>
<svg width="24px" height="24px" viewBox="0 0 24 24" version="1.1" xmlns="http://www.w3.org/2000/svg" xmlns:xlink="http://www.w3.org/1999/xlink">
    <title>账户@2x</title>
    <g id="页面1" stroke="none" stroke-width="1" fill="none" fill-rule="evenodd">
        <g id="当前帐号" transform="translate(-714.000000, -437.000000)" fill="#55BC7E" fill-rule="nonzero">
            <g id="编组-8" transform="translate(673.000000, 301.000000)">
                <g id="账户" transform="translate(41.000000, 136.000000)">
                    <path d="M12,0 C5.372583,0 0,5.372583 0,12 C0,18.627417 5.372583,24 12,24 C18.627417,24 24,18.627417 24,12 C23.9910114,5.37630978 18.6236902,0.00898860333 12,0 Z M19.5452815,19.4180038 L19.2385097,19.7443568 L19.1569214,19.3135708 C18.9306652,18.0831378 18.3924194,16.9313592 17.5936905,15.9684525 C17.3392414,15.6892982 16.9099801,15.6603115 16.6203112,15.9027232 C16.3306423,16.1451349 16.2835217,16.5727857 16.5134621,16.8724504 C17.3901347,17.9266921 17.8704137,19.2543863 17.8710906,20.6255099 C17.8726925,20.6472373 17.8726925,20.6690532 17.8710906,20.6907805 L17.8710906,20.8147947 L17.7666576,20.8833288 C14.2580698,23.1718793 9.72887611,23.1718793 6.22028829,20.8833288 L6.11585531,20.8147947 L6.11585531,20.6287735 C6.11585531,17.3844573 8.74589323,14.7544194 11.9902094,14.7544194 C14.4622726,14.7609467 16.5769415,12.979791 16.9906857,10.5425887 C17.40443,8.10538642 15.9960377,5.72614887 13.6603145,4.91649692 C11.3245913,4.10684497 8.74581874,5.10397706 7.56238998,7.27437692 C6.37896123,9.44477679 6.93757765,12.1525965 8.8833288,13.6774545 L9.17378297,13.902638 L8.84742996,14.062551 C6.75684002,15.0722251 5.27046662,17.0152919 4.84307859,19.2972532 L4.76149034,19.7280392 L4.45471852,19.4016862 C2.50075399,17.4342837 1.40590028,14.7728387 1.40983436,12 C1.40396618,7.21523834 4.60713964,3.02088023 9.2246778,1.76695835 C13.842216,0.513036478 18.7269717,2.51106595 21.1420934,6.64158236 C23.5572151,10.7720988 22.9027077,16.0089471 19.5452815,19.4180038 L19.5452815,19.4180038 Z M8.36442752,9.69921131 C8.36622954,7.69356829 9.99326673,6.06896548 11.9989102,6.07016588 C14.0045537,6.07136762 15.6296439,7.69791797 15.629044,9.70356171 C15.6284437,11.7092055 14.0023803,13.3347838 11.9967365,13.3347838 C9.99013984,13.3329825 8.36442752,11.7058088 8.36442752,9.69921131 L8.36442752,9.69921131 Z" id="形状"></path>
                </g>
            </g>
        </g>
    </g>
</svg>