<?xml version="1.0" encoding="UTF-8"?>
<svg width="18px" height="18px" viewBox="0 0 18 18" version="1.1" xmlns="http://www.w3.org/2000/svg" xmlns:xlink="http://www.w3.org/1999/xlink">
    <title>BobaNetwork</title>
    <g id="页面1" stroke="none" stroke-width="1" fill="none" fill-rule="evenodd">
        <g id="pools备份-6" transform="translate(-1337.000000, -163.000000)" fill="#FFFFFF">
            <path d="M1346,163 C1350.97056,163 1355,167.029437 1355,172 C1355,176.970563 1350.97056,181 1346,181 C1341.02944,181 1337,176.970563 1337,172 C1337,167.029437 1341.02944,163 1346,163 Z M1346.12673,171.044139 C1345.38009,171.044139 1344.68552,171.267058 1344.10594,171.649971 L1344.10594,171.649971 L1344.27568,172.613119 C1344.76921,172.178122 1345.41715,171.914229 1346.12673,171.914229 C1347.67346,171.914229 1348.92734,173.168102 1348.92734,174.714834 C1348.92734,176.261565 1347.67346,177.515438 1346.12673,177.515438 C1344.58,177.515438 1343.32613,176.261565 1343.32613,174.714834 C1343.32613,174.517868 1343.34646,174.325651 1343.38514,174.140167 L1343.38514,174.140167 L1343.11759,172.612128 C1342.70067,173.207668 1342.45604,173.932683 1342.45604,174.714834 C1342.45604,176.742102 1344.09946,178.385528 1346.12673,178.385528 C1348.154,178.385528 1349.79743,176.742102 1349.79743,174.714834 C1349.79743,172.687565 1348.154,171.044139 1346.12673,171.044139 Z M1345.9364,175.829637 C1345.6661,175.829637 1345.44697,176.048761 1345.44697,176.319063 C1345.44697,176.589366 1345.6661,176.808489 1345.9364,176.808489 C1346.2067,176.808489 1346.42582,176.589366 1346.42582,176.319063 C1346.42582,176.048761 1346.2067,175.829637 1345.9364,175.829637 Z M1347.51344,175.28583 C1347.24314,175.28583 1347.02401,175.504954 1347.02401,175.775256 C1347.02401,176.045559 1347.24314,176.264682 1347.51344,176.264682 C1347.78374,176.264682 1348.00286,176.045559 1348.00286,175.775256 C1348.00286,175.504954 1347.78374,175.28583 1347.51344,175.28583 Z M1344.74002,174.687643 C1344.46972,174.687643 1344.2506,174.906767 1344.2506,175.177069 C1344.2506,175.447372 1344.46972,175.666495 1344.74002,175.666495 C1345.01033,175.666495 1345.22945,175.447372 1345.22945,175.177069 C1345.22945,174.906767 1345.01033,174.687643 1344.74002,174.687643 Z M1346.26268,174.198217 C1345.99238,174.198217 1345.77326,174.417341 1345.77326,174.687643 C1345.77326,174.957946 1345.99238,175.177069 1346.26268,175.177069 C1346.53299,175.177069 1346.75211,174.957946 1346.75211,174.687643 C1346.75211,174.417341 1346.53299,174.198217 1346.26268,174.198217 Z M1347.83972,173.708791 C1347.56942,173.708791 1347.3503,173.927915 1347.3503,174.198217 C1347.3503,174.46852 1347.56942,174.687643 1347.83972,174.687643 C1348.11002,174.687643 1348.32915,174.46852 1348.32915,174.198217 C1348.32915,173.927915 1348.11002,173.708791 1347.83972,173.708791 Z M1342.63133,166.045323 L1342.54821,166.052417 C1342.2968,166.096747 1342.12893,166.336489 1342.17326,166.587897 L1342.17326,166.587897 L1343.50474,174.139081 C1343.54907,174.390488 1343.78881,174.558358 1344.04022,174.514028 C1344.29163,174.469698 1344.4595,174.229956 1344.41517,173.978548 L1344.41517,173.978548 L1343.08369,166.427364 C1343.03936,166.175956 1342.79962,166.008087 1342.54821,166.052417 Z M1345.06631,173.110604 C1344.79601,173.110604 1344.57688,173.329727 1344.57688,173.60003 C1344.57688,173.870332 1344.79601,174.089456 1345.06631,174.089456 C1345.33661,174.089456 1345.55573,173.870332 1345.55573,173.60003 C1345.55573,173.329727 1345.33661,173.110604 1345.06631,173.110604 Z M1346.58897,172.566797 C1346.31866,172.566797 1346.09954,172.785921 1346.09954,173.056223 C1346.09954,173.326526 1346.31866,173.545649 1346.58897,173.545649 C1346.85927,173.545649 1347.07839,173.326526 1347.07839,173.056223 C1347.07839,172.785921 1346.85927,172.566797 1346.58897,172.566797 Z" id="形状结合"></path>
        </g>
    </g>
</svg>