<?xml version="1.0" encoding="UTF-8"?>
<svg width="32px" height="32px" viewBox="0 0 331 331" version="1.1" xmlns="http://www.w3.org/2000/svg" xmlns:xlink="http://www.w3.org/1999/xlink">
    <title>形状结合@2x</title>
    <g id="页面1" stroke="none" stroke-width="1" fill="none" fill-rule="evenodd">
        <path d="M165.5,0 C256.903126,0 331,74.0968739 331,165.5 C331,256.903126 256.903126,331 165.5,331 C74.0968739,331 0,256.903126 0,165.5 C0,74.0968739 74.0968739,0 165.5,0 Z M167.830442,147.922772 C154.107323,147.922772 141.340695,152.017996 130.685979,159.053022 L130.685979,159.053022 L133.808697,176.759647 C142.881896,168.769423 154.790171,163.922772 167.830442,163.922772 C196.273106,163.922772 219.330442,186.980107 219.330442,215.422772 C219.330442,243.865436 196.273106,266.922772 167.830442,266.922772 C139.387777,266.922772 116.330442,243.865436 116.330442,215.422772 C116.330442,211.780413 116.708566,208.226369 117.427701,204.797754 L117.427701,204.797754 L112.486213,176.76978 C104.825225,187.718579 100.330442,201.045769 100.330442,215.422772 C100.330442,252.701992 130.551221,282.922772 167.830442,282.922772 C205.109662,282.922772 235.330442,252.701992 235.330442,215.422772 C235.330442,178.143551 205.109662,147.922772 167.830442,147.922772 Z M164.330442,235.922772 C159.359879,235.922772 155.330442,239.952209 155.330442,244.922772 C155.330442,249.893334 159.359879,253.922772 164.330442,253.922772 C169.301005,253.922772 173.330442,249.893334 173.330442,244.922772 C173.330442,239.952209 169.301005,235.922772 164.330442,235.922772 Z M193.330442,225.922772 C188.359879,225.922772 184.330442,229.952209 184.330442,234.922772 C184.330442,239.893334 188.359879,243.922772 193.330442,243.922772 C198.301005,243.922772 202.330442,239.893334 202.330442,234.922772 C202.330442,229.952209 198.301005,225.922772 193.330442,225.922772 Z M142.330442,214.922772 C137.359879,214.922772 133.330442,218.952209 133.330442,223.922772 C133.330442,228.893334 137.359879,232.922772 142.330442,232.922772 C147.301005,232.922772 151.330442,228.893334 151.330442,223.922772 C151.330442,218.952209 147.301005,214.922772 142.330442,214.922772 Z M170.330442,205.922772 C165.359879,205.922772 161.330442,209.952209 161.330442,214.922772 C161.330442,219.893334 165.359879,223.922772 170.330442,223.922772 C175.301005,223.922772 179.330442,219.893334 179.330442,214.922772 C179.330442,209.952209 175.301005,205.922772 170.330442,205.922772 Z M199.330442,196.922772 C194.359879,196.922772 190.330442,200.952209 190.330442,205.922772 C190.330442,210.893334 194.359879,214.922772 199.330442,214.922772 C204.301005,214.922772 208.330442,210.893334 208.330442,205.922772 C208.330442,200.952209 204.301005,196.922772 199.330442,196.922772 Z M111.872287,63.0254117 C111.05711,58.4023101 106.648513,55.3153778 102.025412,56.1305553 C97.4023101,56.9457328 94.3153778,61.3543291 95.1305553,65.9774307 L95.1305553,65.9774307 L119.614948,204.835324 C120.430126,209.458425 124.838722,212.545358 129.461824,211.73018 C134.084925,210.915003 137.171858,206.506406 136.35668,201.883305 L136.35668,201.883305 Z M148.330442,185.922772 C143.359879,185.922772 139.330442,189.952209 139.330442,194.922772 C139.330442,199.893334 143.359879,203.922772 148.330442,203.922772 C153.301005,203.922772 157.330442,199.893334 157.330442,194.922772 C157.330442,189.952209 153.301005,185.922772 148.330442,185.922772 Z M176.330442,175.922772 C171.359879,175.922772 167.330442,179.952209 167.330442,184.922772 C167.330442,189.893334 171.359879,193.922772 176.330442,193.922772 C181.301005,193.922772 185.330442,189.893334 185.330442,184.922772 C185.330442,179.952209 181.301005,175.922772 176.330442,175.922772 Z" id="形状结合" fill="#FFFFFF"></path>
    </g>
</svg>