<?xml version="1.0" encoding="UTF-8"?>
<svg width="24px" height="24px" viewBox="0 0 24 24" version="1.1" xmlns="http://www.w3.org/2000/svg" xmlns:xlink="http://www.w3.org/1999/xlink">
    <title>bridge@2x</title>
    <g id="页面1" stroke="none" stroke-width="1" fill="none" fill-rule="evenodd">
        <g id="bridge" transform="translate(-387.000000, -247.000000)">
            <g id="椭圆形" transform="translate(350.000000, 215.000000)">
                <g id="编组-4" transform="translate(37.000000, 28.000000)">
                    <g id="bridge" transform="translate(0.000000, 4.000000)">
                        <circle id="椭圆形备份-8" fill="#55BC7E" cx="12" cy="12" r="12"></circle>
                        <g id="链接" transform="translate(4.000000, 4.000000)" fill="#FFFFFF" fill-rule="nonzero">
                            <path d="M9.36231884,10.8922101 C8.23317188,10.8904131 7.15115434,10.4393552 6.35507246,9.63858696 L5.79710145,9.08061594 L6.82246377,8.05525362 L7.38043478,8.61322464 C8.42867251,9.66625643 10.114805,9.72335969 11.2318841,8.74365942 L11.2644928,8.71467391 C11.2962889,8.6874057 11.3265297,8.65837455 11.3550725,8.62771739 L13.6485507,6.33423913 C14.1786812,5.80658896 14.4767148,5.08945145 14.4767148,4.34148551 C14.4767148,3.59351957 14.1786812,2.87638205 13.6485507,2.34873188 L13.6050725,2.30525362 C13.0774223,1.77512312 12.3602848,1.47708952 11.6123188,1.47708952 C10.8643529,1.47708952 10.1472154,1.77512312 9.61956522,2.30525362 L8.44927536,3.47554348 C8.41861821,3.50408625 8.38958705,3.53432703 8.36231884,3.56612319 L7.90942029,4.13134058 L6.77898551,3.22554348 L7.24637681,2.6567029 C7.30742873,2.5828889 7.37275835,2.51272005 7.44202899,2.44655797 L8.61231884,1.27626812 C9.41195215,0.472885946 10.4987402,0.0212340631 11.6322464,0.0212340631 C12.7657526,0.0212340631 13.8525406,0.472885946 14.6521739,1.27626812 L14.6956522,1.31974638 C15.4990343,2.11937969 15.9506862,3.2061677 15.9506862,4.33967391 C15.9506862,5.47318013 15.4990343,6.55996814 14.6956522,7.35960145 L12.4021739,9.65307971 C12.34126,9.71552144 12.2771651,9.77477894 12.2101449,9.83061594 C11.4278655,10.5254222 10.4194595,10.9117846 9.37318841,10.9175725 L9.36231884,10.8922101 Z" id="路径"></path>
                            <path d="M4.31884058,15.9646799 C3.18576544,15.9665755 2.09900511,15.5151721 1.30072464,14.7110507 L1.25724638,14.6675725 C0.453864207,13.8679392 0.00221232401,12.7811511 0.00221232401,11.6476449 C0.00221232401,10.5141387 0.453864207,9.4273507 1.25724638,8.62771739 L3.55072464,6.33423913 C3.61163857,6.2717974 3.67573342,6.2125399 3.74275362,6.1567029 C5.4311892,4.66092939 7.99242832,4.73873517 9.58695652,6.33423913 L10.1449275,6.9067029 L9.11956522,7.93206522 L8.5615942,7.3740942 C7.51335648,6.32106241 5.827224,6.26395915 4.71014493,7.24365942 L4.67753623,7.27264493 C4.64574008,7.29991314 4.61549929,7.32894429 4.58695652,7.35960145 L2.29347826,9.65307971 C1.76334776,10.1807299 1.46531416,10.8978674 1.46531416,11.6458333 C1.46531416,12.3937993 1.76334776,13.1109368 2.29347826,13.638587 L2.33695652,13.6820652 C2.86460669,14.2121957 3.58174421,14.5102293 4.32971014,14.5102293 C5.07767608,14.5102293 5.7948136,14.2121957 6.32246377,13.6820652 L7.49275362,12.5117754 C7.52341078,12.4832326 7.55244193,12.4529918 7.57971014,12.4211957 L8.0326087,11.8559783 L9.16666667,12.7617754 L8.69565217,13.3306159 C8.63460026,13.4044299 8.56927064,13.4745988 8.5,13.5407609 L7.32971014,14.7110507 C6.53319856,15.5133871 5.4494043,15.9646799 4.31884058,15.9646799 L4.31884058,15.9646799 Z" id="路径"></path>
                        </g>
                    </g>
                </g>
            </g>
        </g>
    </g>
</svg>