<?xml version="1.0" encoding="UTF-8"?>
<svg width="18px" height="19px" viewBox="0 0 18 19" version="1.1" xmlns="http://www.w3.org/2000/svg" xmlns:xlink="http://www.w3.org/1999/xlink">
    <title>复制@2x</title>
    <g id="页面1" stroke="none" stroke-width="1" fill="none" fill-rule="evenodd">
        <g id="pools项目详情页备份-3" transform="translate(-721.000000, -701.000000)" fill="#55BC7E" fill-rule="nonzero">
            <g id="编组-8" transform="translate(673.000000, 299.000000)">
                <g id="复制" transform="translate(48.000000, 402.000000)">
                    <path d="M13.4632528,16.1927171 C13.4632528,16.8313726 12.961292,17.3490196 12.3428046,17.35014 L2.258771,17.35014 C1.63916315,17.35014 1.13832282,16.8313725 1.13832282,16.1927171 L1.13832282,5.7837535 C1.13832282,5.14509803 1.63916315,4.62745099 2.258771,4.62745099 L12.3428046,4.62745099 C12.961292,4.62745099 13.4632528,5.14509805 13.4632528,5.7837535 L13.4632528,16.1927171 Z M12.3428046,3.47114846 L2.258771,3.47114846 C1.02067576,3.47114846 0.0178746466,4.50644258 0.0178746466,5.7837535 L0.0178746466,16.1927171 C0.0178746466,17.470028 1.02067576,18.5064426 2.258771,18.5064426 L12.3428046,18.5064426 C13.5797794,18.5064426 14.583701,17.4711485 14.583701,16.1927171 L14.583701,5.7837535 C14.583701,4.50644258 13.5797794,3.47114846 12.3428046,3.47114846" id="形状"></path>
                    <path d="M3.37361695,15.0308123 L7.85540967,15.0308123 L7.85540967,13.8733894 L3.37361695,13.8733894 L3.37361695,15.0308123 Z M3.37361695,12.7170868 L11.2167542,12.7170868 L11.2167542,11.5607843 L3.37361695,11.5607843 L3.37361695,12.7170868 Z M3.37361695,10.4044818 L11.2167542,10.4044818 L11.2167542,9.24705882 L3.37361695,9.24705882 L3.37361695,10.4044818 L3.37361695,10.4044818 Z M3.37361695,8.09075631 L11.2167542,8.09075631 L11.2167542,6.93557424 L3.37361695,6.93557424 L3.37361695,8.08963586 L3.37361695,8.09075631 Z" id="形状"></path>
                    <path d="M15.7198354,0.00336134673 L5.63580182,0.00336134673 C4.39770658,0.00336134673 3.39490547,1.03865547 3.39490547,2.31596639 L4.51535365,2.31596639 C4.51535365,1.67731092 5.01731443,1.15966386 5.63580182,1.15966386 L15.7198354,1.15966386 C16.3383228,1.15966386 16.8402836,1.67731092 16.8402836,2.31596639 L16.8402836,12.72493 C16.8402836,13.3635854 16.3383228,13.8812325 15.7198354,13.8823529 L15.7198354,15.0386555 C16.9579307,15.0386555 17.9607318,14.0033613 17.9607318,12.72493 L17.9607318,2.31596639 C17.9607318,1.03865547 16.9579307,0.00336134673 15.7198354,0.00336134673" id="路径"></path>
                </g>
            </g>
        </g>
    </g>
</svg>