<svg height="29" viewBox="0 0 30 29" width="30" xmlns="http://www.w3.org/2000/svg"><path d="m504.998696 665c-8.282609 0-14.998696 6.654857-14.998696 14.866133 0 6.569538 4.296522 12.141106 10.258696 14.108607.748695.133149.986087-.305079.986087-.699355 0-.354202.007826-1.340537 0-2.581536-4.171305.897139-5.036087-1.958452-5.036087-1.958452-.682174-1.718007-1.663044-2.174333-1.663044-2.174333-1.363043-.922993.100435-.903602.100435-.903602 1.503913.103416 2.298261 1.530565 2.298261 1.530565 1.338261 2.272579 3.51 1.615884 4.364348 1.235828.138261-.959189.524347-1.617177.953478-1.985598-3.331304-.377471-6.832174-1.650787-6.832174-7.350334 0-1.622347.584348-2.948665 1.544348-3.989294-.153913-.373593-.670435-1.887353.146087-3.933708 0 0 1.261304-.399447 4.124348 1.525394 1.224316-.330937 2.487488-.499595 3.756521-.50157 1.273044.006463 2.556522.170637 3.756522.50157 2.863044-1.923548 4.120435-1.525394 4.120435-1.525394.817826 2.046355.302609 3.560115.148696 3.933708.96 1.040629 1.543043 2.366947 1.543043 3.989294 0 5.713766-3.507391 6.968985-6.84913 7.334821.537391.461497 1.026521 1.353465 1.026521 2.74054v4.115979c0 .398154.242609.836382 1.004348.692891 5.955652-1.968793 10.248261-7.539068 10.248261-14.106021 0-8.211276-6.714783-14.866133-15.001304-14.866133z" fill="#fff" transform="translate(-490 -665)"/></svg>