<?xml version="1.0" encoding="UTF-8"?>
<svg width="24px" height="24px" viewBox="0 0 24 24" version="1.1" xmlns="http://www.w3.org/2000/svg" xmlns:xlink="http://www.w3.org/1999/xlink">
    <title>history@2x</title>
    <g id="页面1" stroke="none" stroke-width="1" fill="none" fill-rule="evenodd">
        <g id="bridge" transform="translate(-387.000000, -604.000000)">
            <g id="编组-7" transform="translate(387.000000, 601.000000)">
                <g id="history" transform="translate(0.000000, 3.000000)">
                    <circle id="椭圆形" fill="#55BC7E" cx="12" cy="12" r="12"></circle>
                    <g id="列表形式" transform="translate(5.000000, 5.000000)" fill="#FFFFFF" fill-rule="nonzero">
                        <path d="M13.4373814,2.70010298 L8.60401905,2.70010298 C8.30680334,2.70010298 8.0672994,2.46059906 8.0672994,2.16338333 C8.0672994,1.86616762 8.30680332,1.62666368 8.60401905,1.62666368 L13.4344958,1.62666368 C13.7317115,1.62666368 13.9712413,1.86616761 13.9712413,2.16338333 C13.974101,2.46059906 13.7345971,2.70010298 13.4373814,2.70010298 Z" id="路径"></path>
                        <path d="M13.4373814,5.38370119 L8.60401905,5.38370119 C8.30680334,5.38370119 8.0672994,5.14419727 8.0672994,4.84698154 C8.0672994,4.54976582 8.30680332,4.31026189 8.60401905,4.31026189 L13.4344958,4.31026189 C13.7317115,4.31026189 13.9712155,4.54976582 13.9712155,4.84698154 C13.9712155,5.14419727 13.7345971,5.38370119 13.4373814,5.38370119 Z" id="路径"></path>
                        <path d="M13.4373814,9.68034392 L8.60401905,9.68034392 C8.30680334,9.68034392 8.0672994,9.44083999 8.0672994,9.14362427 C8.0672994,8.84640854 8.30680332,8.60690462 8.60401905,8.60690462 L13.4344958,8.60690462 C13.7317115,8.60690462 13.9712155,8.84640854 13.9712155,9.14362427 C13.9712155,9.44083999 13.7345971,9.68034392 13.4373814,9.68034392 Z" id="路径"></path>
                        <path d="M13.4373814,12.3639421 L8.60401905,12.3639421 C8.30680334,12.3639421 8.0672994,12.1244382 8.0672994,11.8272225 C8.0672994,11.5300068 8.30680332,11.2905028 8.60401905,11.2905028 L13.4344958,11.2905028 C13.7317115,11.2905028 13.9712155,11.5300068 13.9712155,11.8272225 C13.9712155,12.1244382 13.7345971,12.3639421 13.4373814,12.3639421 Z" id="路径"></path>
                        <path d="M4.84698156,6.45714047 L1.6266637,6.45714047 C0.737902145,6.45714047 0.0165047714,5.7357431 0.0165047714,4.84698154 L0.0165047714,1.6266637 C0.0165047714,0.737902145 0.737902162,0.0165047714 1.62666372,0.0165047714 L4.84698156,0.0165047714 C5.73574311,0.0165047714 6.45714049,0.737902145 6.45714049,1.6266637 L6.45714049,4.84698154 C6.45714049,5.73574311 5.73574311,6.45714047 4.84698156,6.45714047 Z M1.6266637,1.08994405 C1.33233358,1.08994405 1.08994405,1.33233358 1.08994405,1.62666372 L1.08994405,4.84698156 C1.08994405,5.14131168 1.33233356,5.38370121 1.6266637,5.38370121 L4.84698154,5.38370121 C5.14131166,5.38370121 5.38370119,5.1413117 5.38370119,4.84698156 L5.38370119,1.6266637 C5.38370119,1.33233358 5.14131168,1.08994405 4.84698154,1.08994405 L1.6266637,1.08994405 L1.6266637,1.08994405 Z" id="形状"></path>
                        <path d="M4.84698156,13.974101 L1.6266637,13.974101 C0.737902145,13.974101 0.0165047714,13.2527037 0.0165047714,12.3639421 L0.0165047714,9.14073868 C0.0165047714,8.25197713 0.737902162,7.53057975 1.62666372,7.53057975 L4.84698156,7.53057975 C5.73574311,7.53057975 6.45714049,8.25197713 6.45714049,9.14073868 L6.45714049,12.3610565 C6.45714049,13.2498181 5.73574311,13.974101 4.84698156,13.974101 Z M1.6266637,8.60401903 C1.33233358,8.60401903 1.08994405,8.84352297 1.08994405,9.1407387 L1.08994405,12.3610565 C1.08994405,12.6582722 1.33233356,12.8977762 1.6266637,12.8977762 L4.84698154,12.8977762 C5.14131166,12.8977762 5.38370119,12.6582723 5.38370119,12.3610565 L5.38370119,9.14073868 C5.38370119,8.84352297 5.14131168,8.60401903 4.84698154,8.60401903 L1.6266637,8.60401903 L1.6266637,8.60401903 Z" id="形状"></path>
                    </g>
                </g>
            </g>
        </g>
    </g>
</svg>