<?xml version="1.0" encoding="UTF-8"?>
<svg width="26px" height="28px" viewBox="0 0 26 28" version="1.1" xmlns="http://www.w3.org/2000/svg" xmlns:xlink="http://www.w3.org/1999/xlink">
    <title>图标1@2x</title>
    <g id="页面1" stroke="none" stroke-width="1" fill="none" fill-rule="evenodd">
        <g id="首页新" transform="translate(-670.000000, -801.000000)" fill="#FFB852" fill-rule="nonzero">
            <g id="banner">
                <g id="编组-6" transform="translate(670.000000, 801.000000)">
                    <g id="图标1">
                        <path d="M22.8009728,19.8994704 C20.9526083,19.3164833 19.1472291,18.7334963 17.9705086,18.1505092 C17.1484163,17.7421496 16.6352802,17.33379 16.6352802,16.9254305 L16.6352802,15.9448301 C16.9066245,15.7272175 17.1699089,15.4693061 17.4170739,15.1684096 C17.4842383,15.0878123 17.5487162,15.0045284 17.613194,14.9158714 C17.9006576,14.5209447 18.1908079,13.9782563 18.4433461,13.4382545 C18.7254366,12.839148 18.9645419,12.2481012 19.1042438,11.8827268 C19.2385726,11.7215322 19.3594686,11.5630242 19.4696182,11.4072028 C20.1063368,10.4937669 20.3293226,9.62062961 20.1332025,8.80659698 C20.0176798,8.32569983 19.7570819,7.90390736 19.3997672,7.59763769 C19.5421557,6.4424099 19.534096,5.13404725 19.1149901,3.9841926 C18.8839446,3.35016059 18.5776749,2.78597958 18.2042408,2.29970927 C17.6158806,1.53403504 16.8502063,0.951047989 15.9179644,0.558807864 C14.7197514,0.0537315332 13.5833296,0 13.1481042,0 L12.8472077,0 C12.4146689,0 11.2782472,0.0537315332 10.0773476,0.558807864 C9.07794119,0.977913769 8.27196833,1.61731892 7.66748867,2.46627701 C7.34778609,2.91493524 7.08450162,3.42269816 6.87763525,3.98687917 C6.45852934,5.13673382 6.45046963,6.44509644 6.59285816,7.60032426 C6.23554353,7.90928052 5.97494563,8.32838643 5.85942285,8.80928358 C5.66867593,9.60719673 5.87822889,10.461528 6.48808169,11.3588444 C6.60629104,11.5334719 6.74061986,11.7080994 6.88838156,11.8854134 C7.02808352,12.2534743 7.2671888,12.8445211 7.54927932,13.4463142 C7.80181749,13.9836295 8.08928114,14.5236313 8.3767448,14.918558 C8.43853604,15.0045284 8.50301388,15.0878123 8.56749172,15.165723 C8.80122384,15.4505001 9.05107544,15.6976651 9.3063002,15.907218 L9.3063002,16.9254305 C9.3063002,17.3391632 8.77973125,17.7528959 7.9361463,18.1666287 C6.7594259,18.7442426 4.96747953,19.324543 3.13792108,19.8994704 C7.23324986e-13,20.8881305 7.23324986e-13,26.121581 7.23324986e-13,26.121581 C7.23324986e-13,26.121581 3.82031146,27.5132275 13.0298949,27.5132275 C22.2394783,27.5132275 25.944267,26.121581 25.944267,26.121581 C25.944267,26.121581 25.9415804,20.8881305 22.8009728,19.8994704 Z M8.3874911,10.9854103 C7.0522627,9.52391285 7.56002563,8.92480635 7.86360873,8.81197015 C8.36331192,8.62390982 8.69913394,9.36809144 8.82002988,9.69854032 C8.68301449,9.27137471 8.30420725,8.00062412 8.24241598,6.66270914 C8.6910742,6.0340503 9.58839069,4.98359898 10.6522749,4.81434467 C10.6522749,4.81434467 12.9546708,7.5627122 17.6803584,7.50629409 C17.5460296,8.50570048 17.2881183,9.3600317 17.1779686,9.69854032 C17.2988646,9.36809144 17.6346866,8.62390982 18.1343898,8.81197015 C18.4352863,8.92480635 18.9457358,9.52659944 17.6105074,10.9854103 C17.6105074,10.9854103 17.1161774,12.3286985 16.5976682,13.2958659 C16.4740856,13.5269115 16.3478166,13.739151 16.2269206,13.9030322 C15.8508,14.4188548 15.3913954,14.7734829 14.9212446,15.0152747 C14.2415408,15.3645297 13.5376578,15.4746793 13.0325815,15.4746793 C13.0245217,15.4746793 13.0137754,15.4746793 13.0003425,15.4719927 C12.9869097,15.4719927 12.9761634,15.4746793 12.9681036,15.4746793 C12.4495944,15.4746793 11.7215322,15.3591565 11.025709,14.988409 C10.5716776,14.7466171 10.1337657,14.3973622 9.77107787,13.9030322 C9.65286853,13.739151 9.52659944,13.5322847 9.4057035,13.3012391 C8.8845077,12.3367582 8.3874911,10.9854103 8.3874911,10.9854103 L8.3874911,10.9854103 Z M13.2582539,25.7911321 C13.0943727,25.8959086 12.997656,25.9469536 12.997656,25.9469536 C12.997656,25.9469536 12.9009392,25.893222 12.7370581,25.7911321 C11.8263087,25.2162048 8.82271645,23.0938096 8.40898372,19.8484254 C9.38958405,19.4051404 11.0283956,18.5239433 11.0283956,16.9254305 L11.0283956,16.8609526 C11.8827268,17.1537895 12.6269085,17.1940881 12.9654171,17.1940881 L13.0298949,17.1940881 C13.3630303,17.1940881 14.0857194,17.156476 14.918558,16.8770721 L14.918558,16.9254305 C14.918558,18.5508091 16.6137876,19.4373793 17.5863282,19.869918 C17.1618492,23.1018693 14.1663166,25.2188914 13.2582539,25.7911321 Z" id="形状"></path>
                        <path d="M14.7493037,18.9242432 L13.948704,18.0537925 L12.046608,18.0537925 L11.2460083,18.9242432 C11.2460083,18.9242432 11.7027262,19.8967838 12.4442213,20.2755911 L11.2460083,23.2979894 C11.2460083,23.2979894 12.1218321,24.5445607 12.997656,24.8669499 C13.8707932,24.5445607 14.7493037,23.2979894 14.7493037,23.2979894 L13.5510907,20.2755911 C14.2898992,19.8967838 14.7493037,18.9242432 14.7493037,18.9242432 L14.7493037,18.9242432 Z" id="路径"></path>
                    </g>
                </g>
            </g>
        </g>
    </g>
</svg>