<?xml version="1.0" encoding="UTF-8"?>
<svg width="121px" height="120px" viewBox="0 0 121 120" version="1.1" xmlns="http://www.w3.org/2000/svg" xmlns:xlink="http://www.w3.org/1999/xlink">
    <title>黄3@2x</title>
    <g id="页面1" stroke="none" stroke-width="1" fill="none" fill-rule="evenodd">
        <g id="首页新" transform="translate(-1068.000000, -3025.000000)">
            <g id="编组-32" transform="translate(350.000000, 2795.000000)">
                <g id="黄3" transform="translate(718.666667, 230.000000)">
                    <rect id="矩形备份-12" fill="#D7FF1E" x="0" y="0" width="120" height="120" rx="12"></rect>
                    <g id="分配表维护" transform="translate(35.000000, 36.000000)" fill="#000000" fill-rule="nonzero">
                        <path d="M40.55,50 L5.55,50 C2.475,50 0,47.525 0,44.5 L0,5.5 C0,2.475 2.475,0 5.55,0 L40.55,0 C43.6,0 46.1,2.475 46.1,5.5 L46.1,8.75 C46.1,9.825 45.225,10.7 44.15,10.7 C43.075,10.7 42.2,9.825 42.2,8.75 L42.2,5.5 C42.2,4.6 41.475,3.875 40.575,3.875 L5.575,3.875 C4.675,3.875 3.95,4.6 3.95,5.5 L3.95,44.5 C3.95,45.4 4.675,46.125 5.575,46.125 L40.575,46.125 C41.475,46.125 42.2,45.4 42.2,44.5 L42.2,31.725 C42.2,30.65 43.075,29.775 44.15,29.775 C45.225,29.775 46.1,30.65 46.1,31.725 L46.1,44.5 C46.1,47.525 43.6,50 40.55,50 Z" id="路径"></path>
                        <path d="M22.225,17.95 L8.025,17.95 C7.75,17.95 7.55,17.725 7.55,17.475 L7.55,14.55 C7.55,14.275 7.775,14.075 8.025,14.075 L22.225,14.075 C22.5,14.075 22.7,14.3 22.7,14.55 L22.7,17.475 C22.7,17.75 22.5,17.95 22.225,17.95 Z M22.225,28.375 L8.025,28.375 C7.75,28.375 7.55,28.15 7.55,27.9 L7.55,24.975 C7.55,24.7 7.775,24.5 8.025,24.5 L22.225,24.5 C22.5,24.5 22.7,24.725 22.7,24.975 L22.7,27.9 C22.7,28.175 22.5,28.375 22.225,28.375 Z M35.125,38.8 L8.025,38.8 C7.75,38.8 7.55,38.575 7.55,38.325 L7.55,35.4 C7.55,35.125 7.775,34.925 8.025,34.925 L35.125,34.925 C35.4,34.925 35.6,35.15 35.6,35.4 L35.6,38.325 C35.6,38.575 35.375,38.8 35.125,38.8 Z M35.625,30.75 C35.075,30.75 34.55,30.525 34.175,30.1 L27.375,22.575 C26.65,21.775 26.725,20.55 27.525,19.825 C28.325,19.1 29.575,19.175 30.3,19.975 L35.625,25.875 L46.575,13.45 C47.275,12.65 48.525,12.55 49.325,13.275 C50.15,13.975 50.225,15.2 49.5,16.025 L37.1,30.1 C36.75,30.5 36.2,30.75 35.625,30.75 C35.65,30.75 35.65,30.75 35.625,30.75 Z" id="形状"></path>
                    </g>
                </g>
            </g>
        </g>
    </g>
</svg>