<?xml version="1.0" encoding="UTF-8"?>
<svg width="50px" height="47px" viewBox="0 0 50 47" version="1.1" xmlns="http://www.w3.org/2000/svg" xmlns:xlink="http://www.w3.org/1999/xlink">
    <title>公平公正@2x</title>
    <g id="页面1" stroke="none" stroke-width="1" fill="none" fill-rule="evenodd">
        <g id="首页新" transform="translate(-1097.000000, -1970.000000)" fill="#FFB852" fill-rule="nonzero">
            <g id="编组-29" transform="translate(350.000000, 1797.000000)">
                <g id="编组-11" transform="translate(647.000000, 115.000000)">
                    <g id="公平公正" transform="translate(100.000000, 58.000000)">
                        <path d="M32.4517449,34.1189404 C32.8667768,34.6236576 33.4863721,34.9155223 34.139816,34.914118 L47.5725571,34.914118 C48.2330014,34.916026 48.8585742,34.6178985 49.2730647,34.1037119 C49.6885387,33.5932861 49.8475066,32.9207585 49.7045368,32.2783312 L44.2573287,6.83772208 C44.0642186,6.00706078 43.2394637,5.4857567 42.4062929,5.66773509 C41.5731221,5.84971347 41.0408293,6.66741939 41.2116434,7.50295051 L46.4078363,31.8123414 L35.2809327,31.8123414 L40.9961612,2.63188452 C41.1252166,1.99368922 40.9588871,1.3313562 40.5436231,0.829854061 C40.1285294,0.32562469 39.5091658,0.0341540301 38.8560596,0.0356838478 L28.389816,0.0356838478 C27.188202,0.0335832505 26.2116919,1.004643 26.2070749,2.20625 L26.2070749,39.4542195 C26.2116919,40.6558265 27.188202,41.6268863 28.389816,41.6247779 L42.5540292,41.6247779 L44.0212881,43.8884835 L5.74793782,43.8884835 L7.2151967,41.6247779 L21.3796637,41.6247779 C22.5812777,41.6268863 23.5577878,40.6558265 23.5624048,39.4542195 L23.5624048,2.20625 C23.5577878,1.004643 22.5812777,0.0335832505 21.3796637,0.0356838478 L10.9136739,0.0356838478 C10.2601785,0.033947873 9.64038772,0.325537387 9.22509518,0.830107868 C8.80986471,1.33162697 8.64353921,1.9939439 8.77255711,2.63213832 L14.4882931,31.8123414 L3.36215102,31.8123414 L8.5580901,7.50193528 C8.72765124,6.66691738 8.19535819,5.85046129 7.36290863,5.66870981 C6.53045907,5.48695832 5.7063078,6.00725739 5.51240482,6.83696066 L0.0654505076,32.278585 C-0.0776690651,32.9209334 0.0813182158,33.5934496 0.496922589,34.1037119 C0.911413121,34.6178985 1.53698593,34.916026 2.1974302,34.914118 L15.6299175,34.914118 C16.2831078,34.9155308 16.9024859,34.623867 17.317481,34.119448 C17.7329796,33.6180647 17.8993375,32.9556189 17.770019,32.3174175 L12.0550444,3.13721447 L20.4433693,3.13721447 L20.4433693,38.5232551 L6.69819162,38.5232551 C6.06106914,38.5224195 5.45538456,38.7999979 5.0400698,39.2831536 L2.28194797,43.512849 C1.79352022,44.1477278 1.7010386,45.0023991 2.04235406,45.7270622 C2.39646396,46.5019037 3.17268881,46.9964613 4.02458756,46.9900706 L45.7451459,46.9900706 C46.5973515,46.9965564 47.3738135,46.5016129 47.7276332,45.7263008 C48.0691027,45.0015945 47.9764069,44.1467542 47.4875317,43.5120876 L44.8547906,39.4511739 L44.7294099,39.2841688 C44.3142788,38.8009132 43.7086203,38.5233042 43.0715419,38.5242703 L29.326618,38.5242703 L29.326618,3.13721447 L37.7151967,3.13721447 L32.0002221,32.3171637 C31.87048,32.9551346 32.0364798,33.6175476 32.4517449,34.1189404 L32.4517449,34.1189404 Z" id="路径"></path>
                    </g>
                </g>
            </g>
        </g>
    </g>
</svg>