<?xml version="1.0" encoding="UTF-8"?>
<svg width="522px" height="435px" viewBox="0 0 522 435" version="1.1" xmlns="http://www.w3.org/2000/svg" xmlns:xlink="http://www.w3.org/1999/xlink">
    <title>Team success _Two Color@2x</title>
    <g id="页面1" stroke="none" stroke-width="1" fill="none" fill-rule="evenodd">
        <g id="首页新" transform="translate(-1048.000000, -287.000000)" fill-rule="nonzero">
            <g id="banner">
                <g id="Team-success-_Two-Color" transform="translate(1048.000000, 287.000000)">
                    <polygon id="路径" fill="#D7FF1E" points="522 129 443.547243 243.353376 440.231089 217.620319 210.086451 369.624473 203.968412 294.943631 30.5530618 398 10 346.587091 249.41923 220.688423 256.42394 288.275382 433.705181 166.863594 430.991965 145.865704"></polygon>
                    <polygon id="路径" fill="#E6E6E6" points="473.58 194.95 472.42 195.71 473.3 194.29"></polygon>
                    <ellipse id="椭圆形" fill="#D7FF1E" opacity="0.0988653274" cx="243.5" cy="420.5" rx="243.5" ry="14.5"></ellipse>
                    <path d="M406.726156,207.671416 C408.974607,210.771732 409.598508,214.751723 408.4055,218.384297 C407.212492,222.01687 404.345827,224.86584 400.689343,226.052824 C392.227025,228.890342 378.698096,230.942636 360.35409,226.052824 C326.971951,217.129811 315.329526,161.949895 315.329526,161.949895 C315.329526,161.949895 309.041179,152.669961 313.748456,148.690296 C318.455733,144.710632 322.282641,159.237299 322.282641,159.237299 C322.282641,159.237299 329.181856,185.702957 354.101676,195.375503 C374.350153,203.227755 397.042102,194.393972 406.726156,207.671416 Z" id="路径" fill="#FFDDD4"></path>
                    <path d="M406.726156,207.671416 C408.974607,210.771732 409.598508,214.751723 408.4055,218.384297 C407.212492,222.01687 404.345827,224.86584 400.689343,226.052824 C392.227025,228.890342 378.698096,230.942636 360.35409,226.052824 C326.971951,217.129811 315.329526,161.949895 315.329526,161.949895 C315.329526,161.949895 309.041179,152.669961 313.748456,148.690296 C318.455733,144.710632 322.282641,159.237299 322.282641,159.237299 C322.282641,159.237299 329.181856,185.702957 354.101676,195.375503 C374.350153,203.227755 397.042102,194.393972 406.726156,207.671416 Z" id="路径" fill="#000000" opacity="0.09"></path>
                    <polygon id="路径" fill="#FFDDD4" points="415 324.196777 382.409471 409 376 408.645842 387.189415 320"></polygon>
                    <path d="M436.627471,314.528884 L429.146193,349.218039 L453.768346,332.278051 L458,337.731214 C458,337.731214 432.610079,373.792456 414.183638,368.462428 C395.757197,363.132401 410.755463,307 410.755463,307 L436.627471,314.528884 Z" id="路径" fill="#FFDDD4"></path>
                    <polygon id="路径" fill="#FFE0D8" points="405.634973 168 412 197.539853 396 200 397.801093 177.51498"></polygon>
                    <path d="M397.385842,182.497615 C399.209083,181.856155 400.815375,180.638523 401.999872,179 C401.999872,179 402.096332,184.351351 397,190 L397.385842,182.497615 Z" id="路径" fill="#CE8172" opacity="0.31"></path>
                    <path d="M389.01877,168.301608 C389.192407,173.320961 390.031388,178.294444 391.513437,183.090019 C391.945263,184.217172 392.804892,185.124904 393.902522,185.612792 C395.000152,186.10068 396.245503,186.128595 397.363608,185.690373 C401.086124,184.478484 403.759434,181.184682 404.197591,177.270178 L405.954399,169.115324 C406.316835,165.689749 404.492962,162.40678 401.404266,160.925092 C395.940593,157.90019 388.579568,162.800178 389.01877,168.301608 Z" id="路径" fill="#FFE0D8"></path>
                    <path d="M399.012697,175.030303 C399.012697,175.030303 398.708493,172 401.078083,172 C403.447674,172 403.927996,176.242424 400.78989,177 L399.012697,175.030303 Z" id="路径" fill="#F4A28C"></path>
                    <path d="M389.83018,174 L388.152185,177.665706 C387.952631,178.09002 387.949118,178.607034 388.142882,179.035165 C388.336645,179.463297 388.700595,179.742689 389.106906,179.775216 L392,180 L389.83018,174 Z" id="路径" fill="#FFE0D8"></path>
                    <path d="M395.738592,200.56911 C395.738592,200.56911 356.077966,215.48906 366.857247,242.717968 C374.661089,262.433616 385.08403,258.8102 387.703128,274.529433 L390.464762,290 L430.820251,277.992993 C430.820251,277.992993 426.080931,255.34664 428.700029,240.320119 C431.319127,225.293598 439.30114,187.922676 395.738592,200.56911 Z" id="路径" fill="#ED994C"></path>
                    <path d="M406.424994,208 C406.424994,208 390.982953,229.481153 404.63772,251.423503 C406.943303,255.13082 408.980794,259.033259 410.946795,262.935698 L419.525706,280 L431,276.594235 L429.409327,267.104213 L406.424994,208 Z" id="路径" fill="#000000" opacity="0.09"></path>
                    <path d="M402.580564,170.77817 C402.580564,170.77817 395.58635,198.708365 404.959307,202.49611 C414.332264,206.283856 429.581072,203.027103 429.989363,191.46917 C430.397655,179.911238 418.929984,178.707655 416.568993,162.972583 C414.208002,147.237511 384.02992,152.689032 385.024022,161.7867 C386.018123,170.884368 402.580564,170.77817 402.580564,170.77817 Z" id="路径" fill="#D97517"></path>
                    <path d="M430.268112,277 L390.438397,288.941317 L383,336 L436.387644,335.311078 C436.387644,335.311078 450.086253,299.981737 430.268112,277 Z" id="路径" fill="#9F6ED5"></path>
                    <path d="M376.301432,409 C376.301432,409 372.689209,413.090854 368.385652,412.624807 C364.082096,412.158761 363.096944,418.234628 370.113988,417.992975 C372.284981,417.929795 374.447017,417.687314 376.577965,417.268013 C378.538343,416.927345 380.554118,417.111985 382.419741,417.803104 C383.168207,418.012672 383.969026,417.746078 384.441895,417.129925 C386.550465,414.920519 382.004941,409.327959 382.004941,409.327959 L376.301432,409 Z" id="路径" fill="#ED994C"></path>
                    <path d="M456.641203,338.573774 C456.641203,338.573774 462.347566,338.766277 464.865611,342.423843 C467.383657,346.081408 472.926981,342.913852 468.072044,337.628757 C466.58088,335.966937 464.937815,334.438235 463.16276,333.061175 C461.584561,331.738503 460.386523,330.044662 459.684596,328.143586 C459.379783,327.441067 458.661387,326.989966 457.873053,327.006066 C454.684736,326.778562 453,333.026174 453,333.026174 L456.641203,338.573774 Z" id="路径" fill="#ED994C"></path>
                    <path d="M105.157575,409 C105.157575,409 107.905872,413.483875 112.324019,412.903608 C116.742166,412.323342 118.759903,416.420373 115.107104,418.337009 C111.454305,420.253646 100.33936,417.405067 100.33936,417.405067 L99,409.316509 L105.157575,409 Z" id="路径" fill="#2D348D"></path>
                    <path d="M132.036538,218 C132.036538,218 176.277689,189.606377 193,160.192413 L187.373145,154 C187.373145,154 149.339119,187.671248 116,193.476636 L132.036538,218 Z" id="路径" fill="#FFD7CC"></path>
                    <path d="M193.930435,160 C194.017391,160 197.408696,155.678904 197.530435,155.379073 C198.894613,153.462724 199.745491,151.220386 200,148.870974 C199.860979,146.08084 198.196501,143.603285 195.686957,142.451061 C194.595212,141.768727 193.196057,141.868052 192.208696,142.69798 C191.902256,143.071776 191.671745,143.503349 191.530435,143.967853 C191.165349,144.966024 190.857587,145.984805 190.608696,147.019076 C190.432226,146.24716 190.175726,145.496344 189.843478,144.779161 C189.704348,144.47933 189.513043,144.144225 189.182609,144.091313 C188.865092,144.056701 188.562213,144.235283 188.434783,144.532241 C188.315381,144.822614 188.256182,145.134799 188.26087,145.449372 C188.173913,147.213084 188.052174,148.976797 188,150.740509 C188.044224,151.374885 188.131386,152.005428 188.26087,152.627682 C188.26087,152.856964 188.26087,153.615361 188.434783,153.809369 L193.930435,160 Z" id="路径" fill="#F4A28C"></path>
                    <path d="M71.562478,231.115332 C87.6841771,236.614515 113.941534,239.443677 142,217.16403 L134.46006,185 C134.46006,185 89.3440234,191.241838 67.3598883,209.755163 C63.9412822,212.689429 62.3654054,217.239739 63.2357691,221.663467 C64.1061328,226.087196 67.287871,229.69887 71.562478,231.115332 L71.562478,231.115332 Z" id="路径" fill="#55BC7E"></path>
                    <path d="M71.562478,231.115332 C87.6841771,236.614515 113.941534,239.443677 142,217.16403 L134.46006,185 C134.46006,185 89.3440234,191.241838 67.3598883,209.755163 C63.9412822,212.689429 62.3654054,217.239739 63.2357691,221.663467 C64.1061328,226.087196 67.287871,229.69887 71.562478,231.115332 L71.562478,231.115332 Z" id="路径" fill="#FFFFFF" opacity="0.46"></path>
                    <path d="M98.344271,164.201483 C99.8035961,168.085698 100.696928,172.137282 101,176.246183 C101,178.305031 99.2274177,179.976662 97.0343506,179.985936 C93.6008928,180.174088 90.3669034,178.461792 88.7621135,175.606045 L84.7964641,169.895341 C83.4097702,167.389877 83.8633138,164.335063 85.9269433,162.281069 C89.3901575,158.322322 96.9805182,159.872129 98.344271,164.201483 Z" id="路径" fill="#FFD7CC"></path>
                    <polygon id="路径" fill="#FFD7CC" points="86 171 88.3626493 197 102 194.606695 94.8078176 176.656904"></polygon>
                    <path d="M96.7289782,164.402687 C94.2939724,164.967697 91.8226813,165.38241 89.3307467,165.6442 C91.3288326,167.366271 92.0553939,170.045204 91.1803046,172.463777 C90.3270376,174.803509 87.8601674,176.261152 85.2617193,175.960997 C84.8749074,174.854447 84.5841799,173.71992 84.3924271,172.568694 C83.9115421,171.274723 83.1717189,169.840863 81.6365858,169.508627 C80.6778437,169.487431 79.7237082,169.376138 78.7882667,169.176391 C78.2049604,168.906265 77.7730665,168.4116 77.6030644,167.818932 C77.4330623,167.226264 77.5414417,166.593081 77.9004789,166.081352 C78.4553463,165.381908 79.5095943,164.892298 79.4726031,164.035479 C79.435612,163.17866 78.5663197,162.846424 77.9929568,162.286869 C76.9531997,161.171178 76.7066924,159.580934 77.3641071,158.230095 C78.0416467,156.921994 79.0289715,155.779132 80.2494174,154.89025 C80.492831,154.742138 80.665396,154.509968 80.7303025,154.243265 C80.7303025,153.841085 80.3418953,153.578793 80.0644616,153.281529 C79.4447095,152.48598 79.4447095,151.401706 80.0644616,150.606157 C80.688617,149.818272 81.5346595,149.212313 82.5058781,148.857547 C85.0819506,147.864176 87.8117885,147.273594 90.588446,147.108937 C91.8263202,146.89804 93.1008963,146.994441 94.2875618,147.388715 C95.4577295,147.800796 96.2075533,148.885411 96.1371197,150.064088 C95.9706595,151.148226 94.8609248,152.074989 95.0828717,153.159127 C95.3048187,154.243265 96.784465,154.680417 97.9866776,154.697903 C99.1938951,154.517605 100.428665,154.773554 101.445351,155.414833 C102.684555,156.551429 101.685793,158.772164 100.039687,159.279261 C99.7137029,159.3497 99.4056898,159.480444 99.1334035,159.663955 C98.6525184,160.083621 98.8559698,160.870495 99.244377,161.412564 C99.6954312,161.87866 100.030379,162.43432 100.224643,163.038771 C100.428094,164.472631 98.0236688,164.122909 97.1543765,164.262798 L96.7289782,164.402687 Z" id="路径" fill="#EFBB1E"></path>
                    <path d="M93,172.877186 C93,172.877186 92.2056359,170.44599 90.0873316,171.117179 C87.9690273,171.788368 89.0987896,175.293465 92.1526783,174.980244 L93,172.877186 Z" id="路径" fill="#FFD7CC"></path>
                    <path d="M100.138388,169 L102.613987,171.067901 C102.895724,171.30428 103.037944,171.668505 102.991247,172.034059 C102.944551,172.399614 102.715381,172.716052 102.383341,172.873457 L100,174 L100.138388,169 Z" id="路径" fill="#FFD7CC"></path>
                    <path d="M97.4597156,179.559165 C95.5231993,179.573711 93.6248838,179.031597 92,178 C93.5381278,181.560831 96.3964902,184.419194 100,186 L97.4597156,179.559165 Z" id="路径" fill="#CE8172" opacity="0.31"></path>
                    <path d="M51.9992828,210.970757 C60.2309662,196.28612 77.0173846,188.517853 93.6187633,191.71047 L99.8143703,192.846561 C99.8143703,192.846561 143.576424,199.219319 140.880353,239.302018 C138.85945,264.079702 130.061032,287.836029 115.437298,308 L56.3558479,301.325467 C56.3558479,301.325467 34.0195243,244.0949 51.9992828,210.970757 Z" id="路径" fill="#55BC7E"></path>
                    <path d="M106.406179,410.039804 L115,308.685808 L56.3671059,302 L37,411 L47.9327578,411 L84.593821,340.283361 C85.0190822,336.584829 96.3416629,411 96.3416629,411 L106.406179,410.039804 Z" id="路径" fill="#2D348D"></path>
                    <path d="M82.9572212,212.136184 C82.9572212,212.136184 86.8855025,242.453174 79.4931914,270.154512 C72.1008804,297.85585 79.4931914,304 79.4931914,304 L57.0305651,301.489676 C57.0305651,301.489676 52.1023578,289.201376 51.2095666,282.969453 C50.3167754,276.73753 50.8524501,208.555022 82.9572212,212.136184 Z" id="路径" fill="#000000" opacity="0.08"></path>
                    <path d="M54.6622172,227.783697 C66.8098394,240.008937 89.4004691,254.387385 125,246.966825 L120.442399,207.94215 C120.442399,207.94215 88.9159997,199.916556 60.5655668,206.767673 C56.1579715,207.871919 52.6849391,211.233747 51.4649635,215.57688 C50.2449879,219.920014 51.465145,224.57846 54.6622172,227.783697 L54.6622172,227.783697 Z" id="路径" fill="#55BC7E"></path>
                    <path d="M54.6622172,227.783697 C66.8098394,240.008937 89.4004691,254.387385 125,246.966825 L120.442399,207.94215 C120.442399,207.94215 88.9159997,199.916556 60.5655668,206.767673 C56.1579715,207.871919 52.6849391,211.233747 51.4649635,215.57688 C50.2449879,219.920014 51.465145,224.57846 54.6622172,227.783697 L54.6622172,227.783697 Z" id="路径" fill="#FFFFFF" opacity="0.46"></path>
                    <path d="M122.426412,244 C122.426412,244 175.482259,238.315276 204,219.187432 L201.697879,211 C201.697879,211 151.907831,224.300108 119,214.432286 L122.426412,244 Z" id="路径" fill="#FFD7CC"></path>
                    <path d="M204.323417,219 C206.943191,217.916623 209.480523,216.660545 211.916965,215.240899 C213.622406,214.179813 214.96223,212.663724 215.769302,210.881755 C216.337187,208.570415 215.845512,206.138002 214.41728,204.193026 C213.831907,203.278305 212.697824,202.823291 211.602111,203.063531 C211.027392,203.300044 210.519641,203.662917 210.120443,204.122433 C209.120317,205.163686 208.120191,206.204939 207.138586,207.263841 C207.136443,206.294272 207.01208,205.32846 206.768169,204.387158 C206.768169,204.193026 206.620002,203.945949 206.397752,203.928301 C206.262884,203.926743 206.131746,203.970479 206.027335,204.05184 C203.415895,205.710785 200.304393,208.975732 201.137831,211.781821 C201.749019,213.881976 203.712229,216.917494 204.323417,219 Z" id="路径" fill="#FFD7CC"></path>
                    <path d="M38.8435832,410 C38.8435832,410 36.0784129,414.483875 31.6784879,413.903608 C27.2785629,413.323342 25.2264239,417.420373 28.8959266,419.337009 C32.5654293,421.253646 43.6608924,418.405067 43.6608924,418.405067 L45,410.316509 L38.8435832,410 Z" id="路径" fill="#2D348D"></path>
                    <path d="M421.319361,203.596762 C424.970814,204.636398 427.913878,207.37248 429.243949,210.964026 C430.574019,214.555571 430.131956,218.572853 428.053633,221.781087 C423.286478,229.269805 414.142045,239.302536 396.969652,246.862916 C365.726174,260.640006 322.538225,224.57592 322.538225,224.57592 C322.538225,224.57592 311.905164,221.207789 313.092523,215.170234 C314.279881,209.13268 326.206631,218.126307 326.206631,218.126307 C326.206631,218.126307 347.933519,234.590736 373.116152,226.672044 C393.602516,220.258262 405.635596,199.207442 421.319361,203.596762 Z" id="路径" fill="#FFDDD4"></path>
                    <path d="M176.250425,106.194976 C178.291289,110.120937 181.833906,113.051228 186.069531,114.316891 C190.305155,115.582553 194.872215,115.075545 198.728095,112.911611 C215.612897,103.412623 243.701136,91.2198918 253.170076,70.9104884 C265.453149,44.5756075 211.878418,10 211.878418,10 L204.143975,18.8609963 C204.143975,18.8609963 273.576969,62.6343179 186.30343,79.7892066 C175.188488,81.9867337 170.993836,96.1997717 176.250425,106.248142 L176.250425,106.194976 Z" id="路径" fill="#469CFF"></path>
                    <path d="M176.250425,106.194976 C178.291289,110.120937 181.833906,113.051228 186.069531,114.316891 C190.305155,115.582553 194.872215,115.075545 198.728095,112.911611 C215.612897,103.412623 243.701136,91.2198918 253.170076,70.9104884 C265.453149,44.5756075 211.878418,10 211.878418,10 L204.143975,18.8609963 C204.143975,18.8609963 273.576969,62.6343179 186.30343,79.7892066 C175.188488,81.9867337 170.993836,96.1997717 176.250425,106.248142 L176.250425,106.194976 Z" id="路径" fill="#FFFFFF" opacity="0.46"></path>
                    <path d="M332,116.86741 C332,116.86741 336.015129,114.567185 335.487319,110.910859 C334.959508,107.254532 338.59763,105.520781 340.369565,108.559137 C342.1415,111.597493 339.61555,120.849888 339.61555,120.849888 L332.301606,122 L332,116.86741 Z" id="路径" fill="#3A4092"></path>
                    <path d="M337.079134,197.448114 C337.079134,197.448114 341.228903,199.151087 343.965984,196.374501 C346.703066,193.597915 350.146491,195.356419 348.627852,198.725344 C347.109213,202.094269 338.032698,206 338.032698,206 L333,200.983634 L337.079134,197.448114 Z" id="路径" fill="#3A4092"></path>
                    <path d="M144.602852,74.194954 C147.895841,76.6921075 150.849239,79.6433092 153.382418,82.9679905 C154.49719,84.7045265 154.061799,87.0538893 152.40691,88.2318124 C149.892243,90.2613772 146.47248,90.5701099 143.660983,89.0213857 L137.43792,86.3368365 C135.007044,84.9745771 133.66023,82.1645206 134.074102,79.3184073 C134.511398,74.0545854 141.154939,71.2472137 144.602852,74.194954 Z" id="路径" fill="#FFD8CD"></path>
                    <polygon id="路径" fill="#FFD8CD" points="138 86.4821429 154.005424 106 164 96.3035714 148.347119 86"></polygon>
                    <path d="M144.427278,75.5366695 C142.938388,77.358955 141.239041,79.0030286 139.363828,80.4354247 C141.892657,80.7643751 143.977023,82.5562519 144.656633,84.9855141 C145.325984,87.3388051 144.256357,89.8363514 142.080801,91 L134.776731,84.4973819 C132.581411,82.6832776 131.577354,79.8208199 132.165613,77.053366 C132.400542,75.8706231 132.718887,74.7055618 133.118318,73.5667075 C134.123951,70.7250808 138.287625,68.8771518 138.516979,65.7391591 C138.51859,65.075644 138.90124,64.4705575 139.504065,64.1782717 C140.106891,63.885986 140.825366,63.9571817 141.357451,64.361929 C143.897998,65.9832252 147.073681,69.4350172 145.644623,73.5144076 C145.355275,74.2506018 144.943865,74.9340386 144.427278,75.5366695 Z" id="路径" fill="#5760D3"></path>
                    <path d="M145.389797,83.8616519 C145.389797,83.8616519 143.402724,81.9823104 142.260549,83.7746453 C141.118373,85.5669803 143.981635,88.2815846 146,86.3152366 L145.389797,83.8616519 Z" id="路径" fill="#FFD8CD"></path>
                    <path d="M149,77 L152.069654,77.2878788 C152.413247,77.329402 152.714597,77.5340719 152.8767,77.8360067 C153.038804,78.1379415 153.041198,78.4990263 152.883113,78.8030303 L151.57851,81 L149,77 Z" id="路径" fill="#FFD8CD"></path>
                    <path d="M153.320138,88 C151.752524,89.0357636 149.903375,89.6098427 148,89.6516675 C151.256617,91.6628577 155.185203,92.4212793 159,91.7752401 L153.320138,88 Z" id="路径" fill="#CE8172" opacity="0.31"></path>
                    <path d="M154.947899,106.636471 L161.748065,100.047999 C163.404247,98.4477461 164.968827,96.7533625 166.434189,94.9730942 C171.102696,89.2393426 186.39426,73.4982359 208.979265,80.9770422 C236.356096,90.0228366 252,143.763402 252,143.763402 L220.765044,180 C220.765044,180 112.261888,159.522316 154.947899,106.636471 Z" id="路径" fill="#469CFF"></path>
                    <path d="M204.865542,17 C204.865542,17 192.99407,11.7326863 192.060941,6.70557578 C191.127812,1.67846529 201.219428,9.36496871 201.219428,9.36496871 C201.219428,9.36496871 205.954192,0.477449134 211,10.0341063 L204.865542,17 Z" id="路径" fill="#FFD8CD"></path>
                    <path d="M202.403026,11 C202.403026,11 193.77763,2.00783764 196.548768,0.209405173 C199.319906,-1.5890273 206,8.78792806 206,8.78792806 L202.403026,11 Z" id="路径" fill="#FFD8CD"></path>
                    <path d="M221,178.984903 C221,178.984903 244.232971,198.30238 258.130157,180.382413 C272.027343,162.462446 274.423409,120.607913 332,124.482022 L331.538535,114.982494 C331.538535,114.982494 286.332747,97.4163268 250.12552,136.06897 L221,178.984903 Z" id="路径" fill="#3A4092"></path>
                    <path d="M239,186.304191 C239,186.304191 283.195371,155.007322 327.921086,204 L336,197.379855 C336,197.379855 309.482777,143.89558 241.616366,151.796462 L239,186.304191 Z" id="路径" fill="#3A4092"></path>
                    <path d="M177.378396,118 C177.378396,118 187.797062,123.408549 194.388463,143.239895 C200.979865,163.071242 235,158.510032 235,158.510032 L220.700912,180 C220.700912,180 185.42274,172.391974 166.392727,159.97034 C147.362714,147.548706 176.882269,119.207909 176.882269,119.207909 L177.378396,118 Z" id="路径" fill="#000000" opacity="0.08"></path>
                    <path d="M154.392614,148.240076 C180.491708,159.330516 239.299755,174.303508 252,91.583569 L240.284964,87 C240.284964,87 216.998196,142.416248 171.356129,117.107757 C169.658323,116.142025 167.899063,115.289378 166.089737,114.555338 C157.975194,111.319878 137.751531,105.190478 138.002311,124.333619 C138.272383,134.854135 144.697717,144.225956 154.392614,148.240076 L154.392614,148.240076 Z" id="路径" fill="#469CFF"></path>
                    <path d="M154.392614,148.240076 C180.491708,159.330516 239.299755,174.303508 252,91.583569 L240.284964,87 C240.284964,87 216.998196,142.416248 171.356129,117.107757 C169.658323,116.142025 167.899063,115.289378 166.089737,114.555338 C157.975194,111.319878 137.751531,105.190478 138.002311,124.333619 C138.272383,134.854135 144.697717,144.225956 154.392614,148.240076 L154.392614,148.240076 Z" id="路径" fill="#FFFFFF" opacity="0.46"></path>
                    <path d="M243,87.9028709 C243.720458,83.8327665 245.500794,80.0483047 248.145792,76.9644552 C252.210968,72.7394698 256.361908,73.3839591 258.660362,76.6780156 C260.958816,79.972072 250.838757,85.4323285 250.838757,85.4323285 L250.632925,91 L243,87.9028709 Z" id="路径" fill="#FFD8CD"></path>
                    <g id="编组-3" opacity="0.626883371" transform="translate(52.000000, 45.000000)" fill="#FFB852">
                        <polygon id="矩形" transform="translate(14.498378, 85.637752) rotate(-30.460000) translate(-14.498378, -85.637752) " points="0.0047510213 81.7491304 28.9854908 81.7734564 28.9920046 89.5263727 0.0112647906 89.5020467"></polygon>
                        <polygon id="矩形" transform="translate(326.960078, 70.064336) rotate(165.280000) translate(-326.960078, -70.064336) " points="312.46252 66.1824716 341.453972 66.1961527 341.457636 73.9462006 312.466184 73.9325195"></polygon>
                        <polygon id="矩形" transform="translate(255.051518, 23.352385) rotate(-162.080000) translate(-255.051518, -23.352385) " points="244.688165 20.5914442 265.417986 20.57979 265.41487 26.1133254 244.685049 26.1249796"></polygon>
                        <polygon id="矩形" transform="translate(323.685726, 23.351402) rotate(-64.710000) translate(-323.685726, -23.351402) " points="313.333147 20.5731001 334.034194 20.5884761 334.038305 26.1297044 313.337258 26.1143284"></polygon>
                        <polygon id="矩形" transform="translate(224.576835, 171.202172) rotate(-64.710000) translate(-224.576835, -171.202172) " points="214.224256 168.423869 234.925303 168.439246 234.929414 173.980474 214.228367 173.965098"></polygon>
                        <polygon id="矩形" transform="translate(389.262020, 42.996825) rotate(-172.130000) translate(-389.262020, -42.996825) " points="378.89632 40.2331613 399.629163 40.2277619 399.62772 45.7604893 378.894876 45.7658887"></polygon>
                        <polygon id="矩形" transform="translate(57.545311, 50.786167) rotate(-164.420000) translate(-57.545311, -50.786167) " points="47.1813288 48.0246683 67.9120471 48.0143694 67.9092937 53.547665 47.1785754 53.5579639"></polygon>
                        <polygon id="矩形" transform="translate(124.326267, 5.404247) rotate(168.480000) translate(-124.326267, -5.404247) " points="113.959224 2.63387574 134.691227 2.64166562 134.693309 8.17461795 113.961307 8.16682807"></polygon>
                        <polygon id="矩形" transform="translate(23.779705, 10.866301) rotate(168.480000) translate(-23.779705, -10.866301) " points="13.4126622 8.09592981 34.1446644 8.10371969 34.1467471 13.636672 13.4147448 13.6288821"></polygon>
                    </g>
                </g>
            </g>
        </g>
    </g>
</svg>