<?xml version="1.0" encoding="UTF-8"?>
<svg width="26px" height="26px" viewBox="0 0 26 26" version="1.1" xmlns="http://www.w3.org/2000/svg" xmlns:xlink="http://www.w3.org/1999/xlink">
    <title>社区@2x</title>
    <g id="页面1" stroke="none" stroke-width="1" fill="none" fill-rule="evenodd">
        <g id="首页新" transform="translate(-844.000000, -803.000000)" fill="#FFB852" fill-rule="nonzero">
            <g id="banner">
                <g id="编组-7" transform="translate(844.000000, 803.000000)">
                    <g id="社区">
                        <path d="M24.8704722,7.83978397 C24.2269079,6.31863185 23.2908143,4.91449145 22.1206972,3.74437445 L21.9451797,3.56885688 C19.5464398,1.28712871 16.328618,-4.75571178e-14 12.9937846,-4.75571178e-14 C9.54193936,-4.75571178e-14 6.32411758,1.34563457 3.86687187,3.74437445 L3.86687187,3.80288028 C1.46813199,6.26012602 0.122497422,9.4779478 0.122497422,12.8712871 C0.122497422,14.2754275 0.356520827,15.5625562 0.766061779,16.849685 C1.17560273,18.019802 1.7021554,19.1314131 2.40422559,20.1845185 L2.5212373,20.3015301 L2.5212373,25.2160216 C2.5212373,25.450045 2.75526071,25.6840684 2.98928411,25.6840684 L12.9937846,25.6840684 C14.7489601,25.6840684 16.3871239,25.3330333 18.0252877,24.6894689 C19.5464398,24.0459046 20.9505802,23.109811 22.1206972,21.939694 L22.2962148,21.7641764 C24.6364488,19.3654366 25.9235775,16.2061206 25.9235775,12.8127813 C25.8650717,11.1161116 25.5140366,9.4779478 24.8704722,7.83978397 Z M17.6157467,14.9189919 L12.9937846,19.3654366 C12.9352787,19.4239424 12.818267,19.4824482 12.7012553,19.4824482 C12.5842436,19.4824482 12.5257377,19.4239424 12.4087261,19.3654366 L7.8452697,14.9774977 L7.78676384,14.9189919 C6.67515268,13.8073807 6.38262344,12.4032403 6.90917608,11.0576057 C7.49423458,9.59495949 8.95688084,8.60036004 10.478033,8.60036004 C11.1801032,8.60036004 11.8821734,8.83438344 12.5257377,9.24392439 L12.6427495,9.30243025 L12.7597611,9.24392439 C13.4033255,8.83438344 14.1053957,8.60036004 14.8074659,8.60036004 C16.328618,8.60036004 17.7912643,9.59495949 18.3763228,11.0576057 C19.0198872,12.4032403 18.7273579,13.8073807 17.6157467,14.9189919 L17.6157467,14.9189919 Z" id="形状"></path>
                    </g>
                </g>
            </g>
        </g>
    </g>
</svg>