<?xml version="1.0" encoding="UTF-8"?>
<svg width="50px" height="50px" viewBox="0 0 50 50" version="1.1" xmlns="http://www.w3.org/2000/svg" xmlns:xlink="http://www.w3.org/1999/xlink">
    <title>交换量@2x</title>
    <g id="页面1" stroke="none" stroke-width="1" fill="none" fill-rule="evenodd">
        <g id="首页新" transform="translate(-450.000000, -1968.000000)" fill="#FFB852" fill-rule="nonzero">
            <g id="编组-29" transform="translate(350.000000, 1797.000000)">
                <g id="编组-24" transform="translate(0.000000, 115.000000)">
                    <g id="交换量" transform="translate(100.000000, 56.000000)">
                        <path d="M31.0342657,4.08446678 C36.8413833,4.66500559 41.509434,8.16898479 42.5017095,14.1698495 L39.140451,14.1698495 L44.5702511,22.2548756 L50,14.1698495 L46.2543608,14.1698495 C45.2550732,6.08477209 39.1405022,0.832261012 31.4185952,0.0839074007 C30.3493924,-3.74700271e-16 29.3571168,0.916219639 29.3571168,2.0842127 C29.426981,3.08433974 30.1118031,4.00055938 31.0342657,4.08446678 Z M22.6275366,0 L3.74563925,0 C2.67643639,0 1.83786196,0.916219639 1.83786196,2.0842127 L1.83786196,20.0867555 C1.83786196,21.2546974 2.67643639,22.1709682 3.74563925,22.1709682 L22.6275366,22.1709682 C23.6967395,22.1709682 24.5353139,21.2547486 24.5353139,20.0867555 L24.5353139,2.0842127 C24.5353139,0.916219639 23.6967395,0 22.6275366,0 Z M20.7896746,18.1704089 L5.58350121,18.1704089 L5.58350121,4.00055938 L20.7966355,4.00055938 L20.7896746,18.1704089 L20.7896746,18.1704089 Z M18.9518127,45.8385925 C12.4528609,45.2581049 7.48426649,40.9218647 7.25368924,33.7529557 L10.8455762,33.7529557 L5.42974892,25.6749474 L0,33.7530069 L3.59188696,33.7530069 C3.73862724,43.0060262 10.237579,49.0069421 18.574444,49.8392031 C19.6436468,49.9231105 20.6359223,49.0068909 20.6359223,47.8388978 C20.6569072,46.8457374 19.9371274,45.9924739 18.9518127,45.8385925 Z M46.3242249,27.7521423 L27.4424299,27.7521423 C26.366215,27.7521423 25.5346526,28.6753798 25.5346526,29.836355 L25.5346526,47.9228052 C25.5346526,49.0838316 26.373227,50 27.4424299,50 L46.3243273,50 C47.3935301,50 48.2320534,49.0838316 48.2320534,47.9228052 L48.2320534,29.836355 C48.2320534,28.6753798 47.3166028,27.7521423 46.3243273,27.7521423 L46.3242249,27.7521423 Z M44.4863629,45.9225511 L29.2732287,45.9225511 L29.2732287,31.8366603 L44.4863629,31.8366603 L44.4863629,45.9225511 L44.4863629,45.9225511 Z" id="形状"></path>
                    </g>
                </g>
            </g>
        </g>
    </g>
</svg>