<?xml version="1.0" encoding="UTF-8"?>
<svg width="121px" height="120px" viewBox="0 0 121 120" version="1.1" xmlns="http://www.w3.org/2000/svg" xmlns:xlink="http://www.w3.org/1999/xlink">
    <title>黄2@2x</title>
    <g id="页面1" stroke="none" stroke-width="1" fill="none" fill-rule="evenodd">
        <g id="首页新" transform="translate(-731.000000, -3025.000000)">
            <g id="编组-32" transform="translate(350.000000, 2795.000000)">
                <g id="黄2" transform="translate(381.333333, 230.000000)">
                    <rect id="矩形备份-11" fill="#D7FF1E" x="0" y="0" width="120" height="120" rx="12"></rect>
                    <g id="假期类型" transform="translate(35.000000, 35.000000)" fill="#000000" fill-rule="nonzero">
                        <path d="M19.1717791,0 L0,0 L0,19.1717791 C0,21.2894354 1.71669958,23.006135 3.83435583,23.006135 L19.1717791,23.006135 C21.2894354,23.006135 23.006135,21.2894354 23.006135,19.1717791 L23.006135,3.83435583 C23.006135,1.71669958 21.2894354,0 19.1717791,0 Z M19.1717791,19.1717791 L3.83435583,19.1717791 L3.83435583,3.83435583 L19.1717791,3.83435583 L19.1717791,19.1717791 Z M19.1717791,26.8404908 L3.83435583,26.8404908 C1.71669958,26.8404908 0,28.5571904 0,30.6748466 L0,49.8466258 L19.1717791,49.8466258 C21.2894354,49.8466258 23.006135,48.1299262 23.006135,46.0122699 L23.006135,30.6748466 C23.006135,28.5571904 21.2894354,26.8404908 19.1717791,26.8404908 Z M19.1717791,46.0122699 L3.83435583,46.0122699 L3.83435583,30.6748466 L19.1717791,30.6748466 L19.1717791,46.0122699 Z M30.6748466,0 C28.5571904,0 26.8404908,1.71669958 26.8404908,3.83435583 L26.8404908,19.1717791 C26.8404908,21.2894354 28.5571904,23.006135 30.6748466,23.006135 L46.0122699,23.006135 C48.1299262,23.006135 49.8466258,21.2894354 49.8466258,19.1717791 L49.8466258,0 L30.6748466,0 Z M46.0122699,19.1717791 L30.6748466,19.1717791 L30.6748466,3.83435583 L46.0122699,3.83435583 L46.0122699,19.1717791 Z M46.0122699,26.8404908 L30.6748466,26.8404908 C28.5571904,26.8404908 26.8404908,28.5571904 26.8404908,30.6748466 L26.8404908,46.0122699 C26.8404908,48.1299262 28.5571904,49.8466258 30.6748466,49.8466258 L49.8466258,49.8466258 L49.8466258,30.6748466 C49.8466258,28.5571904 48.1299262,26.8404908 46.0122699,26.8404908 Z M46.0122699,46.0122699 L30.6748466,46.0122699 L30.6748466,30.6748466 L46.0122699,30.6748466 L46.0122699,46.0122699 Z" id="形状"></path>
                    </g>
                </g>
            </g>
        </g>
    </g>
</svg>