<?xml version="1.0" encoding="UTF-8"?>
<svg width="120px" height="120px" viewBox="0 0 120 120" version="1.1" xmlns="http://www.w3.org/2000/svg" xmlns:xlink="http://www.w3.org/1999/xlink">
    <title>黄1@2x</title>
    <g id="页面1" stroke="none" stroke-width="1" fill="none" fill-rule="evenodd">
        <g id="首页新" transform="translate(-394.000000, -3025.000000)">
            <g id="编组-32" transform="translate(350.000000, 2795.000000)">
                <g id="黄1" transform="translate(44.000000, 230.000000)">
                    <rect id="矩形" fill="#D7FF1E" x="0" y="0" width="120" height="120" rx="12"></rect>
                    <g id="解决方案池" transform="translate(35.000000, 35.000000)" fill="#000000" fill-rule="nonzero">
                        <path d="M47.4185181,34.9255371 L49.2241211,38.1143188 L28.5393066,49.760376 C26.3597412,50.9874878 23.6964111,50.9938965 21.5109863,49.7771606 L0.646484375,38.1610107 L2.43670654,34.9636841 L23.3012695,46.579834 C24.3690163,47.1740134 25.6687608,47.1708932 26.7336426,46.5715942 L47.418457,34.9255371 L47.4185181,34.9255371 Z M47.4185181,23.9398193 L49.2241211,27.12854 L28.5393066,38.7745972 C26.3597412,40.001709 23.6964111,40.0081177 21.5109863,38.7913818 L0.646484375,27.1752319 L2.43670654,23.9779053 L23.3012695,35.5940552 C24.3690163,36.1882346 25.6687608,36.1851144 26.7336426,35.5858154 L47.418457,23.9398193 L47.4185181,23.9398193 Z M27.5741577,0.698120117 L48.5140991,12.3961182 C49.8010254,13.1150513 50.2597656,14.7380371 49.5388184,16.0212402 C49.2979473,16.4497343 48.9433422,16.8033256 48.5141602,17.0429688 L27.5742188,28.7409668 C25.9516021,29.6470562 23.9752167,29.6470562 22.3526001,28.7409668 L1.41265869,17.0429688 C0.125732422,16.3240967 -0.333007812,14.7010498 0.387939453,13.4179077 C0.628810478,12.9894136 0.983415621,12.6358223 1.41259766,12.3961792 L22.3525391,0.698120117 C23.9751557,-0.207969305 25.9515411,-0.207969305 27.5741577,0.698120117 L27.5741577,0.698120117 Z M24.147522,3.89282227 L4.76721191,14.7195435 L24.147522,25.5462646 C24.6545773,25.8294079 25.2721806,25.8294079 25.7792358,25.5462646 L45.1595459,14.7195435 L25.7792358,3.89282227 C25.2721806,3.60967903 24.6545773,3.60967903 24.147522,3.89282227 Z" id="形状"></path>
                    </g>
                </g>
            </g>
        </g>
    </g>
</svg>