<?xml version="1.0" encoding="UTF-8"?>
<svg width="50px" height="50px" viewBox="0 0 50 50" version="1.1" xmlns="http://www.w3.org/2000/svg" xmlns:xlink="http://www.w3.org/1999/xlink">
    <title>列表形式@2x</title>
    <g id="页面1" stroke="none" stroke-width="1" fill="none" fill-rule="evenodd">
        <g id="首页新" transform="translate(-773.000000, -1968.000000)" fill="#FFB852" fill-rule="nonzero">
            <g id="编组-29" transform="translate(350.000000, 1797.000000)">
                <g id="编组-12" transform="translate(323.000000, 115.000000)">
                    <g id="列表形式" transform="translate(100.000000, 56.000000)">
                        <path d="M47.9906479,9.64322493 L30.7286395,9.64322493 C29.6671548,9.64322493 28.8117836,8.78785378 28.8117836,7.72636904 C28.8117836,6.66488437 29.6671547,5.80951316 30.7286395,5.80951316 L47.9803422,5.80951316 C49.0418269,5.80951316 49.8972903,6.66488431 49.8972903,7.72636904 C49.9075037,8.78785378 49.0521326,9.64322493 47.9906479,9.64322493 Z" id="路径"></path>
                        <path d="M47.9906479,19.2275043 L30.7286395,19.2275043 C29.6671548,19.2275043 28.8117836,18.3721331 28.8117836,17.3106484 C28.8117836,16.2491636 29.6671547,15.3937925 30.7286395,15.3937925 L47.9803422,15.3937925 C49.0418269,15.3937925 49.8971981,16.2491636 49.8971981,17.3106484 C49.8971981,18.3721331 49.0521326,19.2275043 47.9906479,19.2275043 Z" id="路径"></path>
                        <path d="M47.9906479,34.5726568 L30.7286395,34.5726568 C29.6671548,34.5726568 28.8117836,33.7172857 28.8117836,32.655801 C28.8117836,31.5943162 29.6671547,30.7389451 30.7286395,30.7389451 L47.9803422,30.7389451 C49.0418269,30.7389451 49.8971981,31.5943162 49.8971981,32.655801 C49.8971981,33.7172857 49.0521326,34.5726568 47.9906479,34.5726568 Z" id="路径"></path>
                        <path d="M47.9906479,44.1569362 L30.7286395,44.1569362 C29.6671548,44.1569362 28.8117836,43.301565 28.8117836,42.2400803 C28.8117836,41.1785955 29.6671547,40.3232244 30.7286395,40.3232244 L47.9803422,40.3232244 C49.0418269,40.3232244 49.8971981,41.1785955 49.8971981,42.2400803 C49.8971981,43.301565 49.0521326,44.1569362 47.9906479,44.1569362 Z" id="路径"></path>
                        <path d="M17.3106484,23.061216 L5.80951322,23.061216 C2.6353648,23.061216 0.0589456121,20.4847968 0.0589456121,17.3106484 L0.0589456121,5.80951322 C0.0589456121,2.6353648 2.63536486,0.0589456121 5.80951328,0.0589456121 L17.3106484,0.0589456121 C20.4847968,0.0589456121 23.061216,2.6353648 23.061216,5.80951322 L23.061216,17.3106484 C23.061216,20.4847968 20.4847968,23.061216 17.3106484,23.061216 Z M5.80951322,3.89265733 C4.75833421,3.89265733 3.89265733,4.75833421 3.89265733,5.80951328 L3.89265733,17.3106484 C3.89265733,18.3618274 4.75833415,19.2275043 5.80951322,19.2275043 L17.3106484,19.2275043 C18.3618274,19.2275043 19.2275043,18.3618275 19.2275043,17.3106484 L19.2275043,5.80951322 C19.2275043,4.75833421 18.3618274,3.89265733 17.3106484,3.89265733 L5.80951322,3.89265733 L5.80951322,3.89265733 Z" id="形状"></path>
                        <path d="M17.3106484,49.9075037 L5.80951322,49.9075037 C2.6353648,49.9075037 0.0589456121,47.3310845 0.0589456121,44.1569361 L0.0589456121,32.6454953 C0.0589456121,29.4713469 2.63536486,26.8949277 5.80951328,26.8949277 L17.3106484,26.8949277 C20.4847968,26.8949277 23.061216,29.4713469 23.061216,32.6454953 L23.061216,44.1466304 C23.061216,47.3207789 20.4847968,49.9075037 17.3106484,49.9075037 Z M5.80951322,30.7286394 C4.75833421,30.7286394 3.89265733,31.5840106 3.89265733,32.6454954 L3.89265733,44.1466305 C3.89265733,45.2081152 4.75833415,46.0634864 5.80951322,46.0634864 L17.3106484,46.0634864 C18.3618274,46.0634864 19.2275043,45.2081152 19.2275043,44.1466305 L19.2275043,32.6454953 C19.2275043,31.5840106 18.3618274,30.7286394 17.3106484,30.7286394 L5.80951322,30.7286394 L5.80951322,30.7286394 Z" id="形状"></path>
                    </g>
                </g>
            </g>
        </g>
    </g>
</svg>