<?xml version="1.0" encoding="UTF-8"?>
<svg width="120px" height="120px" viewBox="0 0 120 120" version="1.1" xmlns="http://www.w3.org/2000/svg" xmlns:xlink="http://www.w3.org/1999/xlink">
    <title>黄5@2x</title>
    <g id="页面1" stroke="none" stroke-width="1" fill="none" fill-rule="evenodd">
        <g id="首页新" transform="translate(-1406.000000, -3025.000000)">
            <g id="编组-32" transform="translate(350.000000, 2795.000000)">
                <g id="黄5" transform="translate(1056.000000, 230.000000)">
                    <rect id="矩形备份-14" fill="#D7FF1E" x="0" y="0" width="120" height="120" rx="12"></rect>
                    <g id="参数配置" transform="translate(35.000000, 40.000000)" fill="#000000" fill-rule="nonzero">
                        <path d="M48.0846058,8.88338956 L14.3765536,8.88338956 C13.3944425,8.88338956 12.6009854,8.08993253 12.6009854,7.10782138 C12.6009854,6.12571023 13.3944425,5.3322532 14.3765536,5.3322532 L48.0846058,5.3322532 C49.066717,5.3322532 49.860174,6.12571023 49.860174,7.10782138 C49.860174,8.08993253 49.066717,8.88338956 48.0846058,8.88338956 Z" id="路径"></path>
                        <path d="M12.9006126,14.2156428 L2.00306286,14.2156428 C1.0209517,14.2156428 0.227494673,13.4221857 0.227494673,12.4400746 L0.227494673,1.77556818 C0.227494673,0.793457031 1.0209517,0 2.00306286,0 L12.9006126,0 C13.8827237,0 14.6761808,0.793457031 14.6761808,1.77556818 L14.6761808,12.4456232 C14.6761808,13.4221857 13.8827237,14.2156428 12.9006126,14.2156428 Z M3.77863104,10.6645064 L11.1250444,10.6645064 L11.1250444,3.55113636 L3.77863104,3.55113636 L3.77863104,10.6645064 Z M47.8737571,40.6549627 L14.1601563,40.6549627 C13.1780451,40.6549627 12.3845881,39.8615057 12.3845881,38.8793945 C12.3845881,37.8972834 13.1780451,37.1038263 14.1601563,37.1038263 L47.8682085,37.1038263 C48.8503196,37.1038263 49.6437766,37.8972834 49.6437766,38.8793945 C49.6437766,39.8615057 48.8503196,40.6549627 47.8737571,40.6549627 Z" id="形状"></path>
                        <path d="M12.6897638,45.9872159 L1.78666548,45.9872159 C0.804554332,45.9872159 0.0110973011,45.1937589 0.0110973011,44.2116477 L0.0110973011,33.5471413 C0.0110973011,32.5650302 0.804554332,31.7715732 1.78666548,31.7715732 L12.6842152,31.7715732 C13.6663263,31.7715732 14.4598123,32.5650302 14.4598123,33.5471413 L14.4598123,44.2171964 C14.465332,45.1937589 13.671875,45.9872159 12.6897638,45.9872159 L12.6897638,45.9872159 Z M3.56223366,42.4360795 L10.908647,42.4360795 L10.908647,35.3227095 L3.56223366,35.3227095 L3.56223366,42.4360795 Z" id="形状"></path>
                        <path d="M35.6611772,25.629217 L1.94757635,25.629217 C0.965465199,25.629217 0.172008168,24.8357599 0.172008168,23.8536488 C0.172008168,22.8715376 0.965465199,22.0780806 1.94757635,22.0780806 L35.6556286,22.0780806 C36.6377397,22.0780806 37.4311967,22.8715376 37.4311967,23.8536488 C37.4311967,24.8357599 36.6377397,25.629217 35.6611772,25.629217 Z" id="路径"></path>
                        <path d="M48.034668,30.9614702 L37.1315696,30.9614702 C36.1494585,30.9614702 35.3560014,30.1680131 35.3560014,29.185902 L35.3560014,18.5213956 C35.3560014,17.5392844 36.1494585,16.7458274 37.1315696,16.7458274 L48.0291193,16.7458274 C49.0112305,16.7458274 49.8047162,17.5392844 49.8047162,18.5213956 L49.8047162,29.185902 C49.8102362,30.1680131 49.0112305,30.9614702 48.034668,30.9614702 Z M38.9071378,27.4103338 L46.2535511,27.4103338 L46.2535511,20.2969638 L38.9071378,20.2969638 L38.9071378,27.4103338 Z" id="形状"></path>
                    </g>
                </g>
            </g>
        </g>
    </g>
</svg>