<?xml version="1.0" encoding="UTF-8"?>
<svg width="30px" height="30px" viewBox="0 0 30 30" version="1.1" xmlns="http://www.w3.org/2000/svg" xmlns:xlink="http://www.w3.org/1999/xlink">
    <title>形状@2x</title>
    <g id="页面1" stroke="none" stroke-width="1" fill="none" fill-rule="evenodd">
        <g id="首页新" transform="translate(-397.000000, -664.000000)" fill="#FFFFFF" fill-rule="nonzero">
            <path d="M397,664 L397,694 L427,694 L427,664 L397,664 Z M421.924107,671.104911 L420.316964,672.645089 C420.176339,672.752232 420.109375,672.926339 420.136161,673.09375 L420.136161,684.430804 C420.109375,684.604911 420.176339,684.779018 420.316964,684.879464 L421.890625,686.419643 L421.890625,686.761161 L413.988839,686.761161 L413.988839,686.433036 L415.616071,684.852679 C415.776786,684.691964 415.776786,684.645089 415.776786,684.404018 L415.776786,675.236607 L411.25,686.727679 L410.640625,686.727679 L405.370536,675.236607 L405.370536,682.9375 C405.323661,683.258929 405.4375,683.587054 405.665179,683.821429 L407.78125,686.386161 L407.78125,686.727679 L401.767857,686.727679 L401.767857,686.386161 L403.883929,683.821429 C404.111607,683.587054 404.212054,683.258929 404.158482,682.9375 L404.158482,674.03125 C404.185268,673.783482 404.091518,673.542411 403.904018,673.375 L402.022321,671.104911 L402.022321,670.763393 L407.868304,670.763393 L412.381696,680.674107 L416.352679,670.770089 L421.924107,670.770089 L421.924107,671.104911 Z" id="形状"></path>
        </g>
    </g>
</svg>