<?xml version="1.0" encoding="UTF-8"?>
<svg width="24px" height="24px" viewBox="0 0 24 24" version="1.1" xmlns="http://www.w3.org/2000/svg" xmlns:xlink="http://www.w3.org/1999/xlink">
    <title>网络@2x</title>
    <g id="页面1" stroke="none" stroke-width="1" fill="none" fill-rule="evenodd">
        <g id="当前帐号" transform="translate(-714.000000, -557.000000)" fill="#55BC7E" fill-rule="nonzero">
            <g id="编组-8" transform="translate(673.000000, 301.000000)">
                <g id="网络" transform="translate(41.000000, 256.000000)">
                    <path d="M11.449125,23.7136875 C8.065125,20.7496875 6.121125,16.4776875 6.121125,11.9896875 C6.121125,7.4776875 8.077125,3.1816875 11.485125,0.2296875 L12.469125,1.3576875 C9.385125,4.0336875 7.621125,7.9096875 7.621125,11.9896875 C7.621125,16.0456875 9.373125,19.9096875 12.433125,22.5856875 L11.449125,23.7136875 L11.449125,23.7136875 Z" id="路径"></path>
                    <path d="M12.361125,23.7136875 L11.377125,22.5856875 C14.437125,19.9096875 16.189125,16.0456875 16.189125,11.9896875 C16.189125,7.9096875 14.425125,4.0336875 11.341125,1.3576875 L12.325125,0.2296875 C15.733125,3.1936875 17.689125,7.4776875 17.689125,11.9896875 C17.689125,16.4896875 15.757125,20.7616875 12.361125,23.7136875 L12.361125,23.7136875 Z" id="路径"></path>
                    <path d="M1.537125,11.1976875 C1.561125,10.8256875 1.609125,10.4536875 1.669125,10.0936875 C2.557125,5.1136875 6.877125,1.5016875 11.941125,1.5016875 C16.225125,1.5016875 20.053125,4.1176875 21.637125,8.0536875 L23.233125,8.0536875 C21.589125,3.2536875 17.053125,0.0136875 11.953125,0.0136875 C6.157125,0.0136875 1.213125,4.1416875 0.205125,9.8416875 C0.085125,10.5376875 0.013125,11.2456875 0.013125,11.9536875 L0.013125,12.6976875 L22.369125,12.6976875 C22.345125,13.0816875 22.297125,13.4656875 22.225125,13.8496875 C21.313125,18.7936875 16.993125,22.3816875 11.953125,22.3816875 C7.609125,22.3816875 3.757125,19.7176875 2.209125,15.6976875 L0.613125,15.6976875 C2.233125,20.6056875 6.793125,23.8936875 11.953125,23.8936875 C17.713125,23.8936875 22.657125,19.7896875 23.689125,14.1256875 C23.821125,13.4176875 23.881125,12.6856875 23.881125,11.9536875 L23.881125,11.2096875 L1.537125,11.2096875 L1.537125,11.1976875 Z" id="路径"></path>
                </g>
            </g>
        </g>
    </g>
</svg>