<?xml version="1.0" encoding="UTF-8"?>
<svg width="130px" height="130px" viewBox="0 0 130 130" version="1.1" xmlns="http://www.w3.org/2000/svg" xmlns:xlink="http://www.w3.org/1999/xlink">
    <title>编组 20@2x</title>
    <defs>
        <linearGradient x1="38.6731395%" y1="-12.9943912%" x2="56.4204922%" y2="107.935439%" id="linearGradient-1">
            <stop stop-color="#4DCC8A" offset="0%"></stop>
            <stop stop-color="#1EA152" offset="100%"></stop>
        </linearGradient>
    </defs>
    <g id="页面1" stroke="none" stroke-width="1" fill="none" fill-rule="evenodd">
        <g id="pools项目详情页" transform="translate(-1420.000000, -830.000000)">
            <g id="编组-5" transform="translate(350.000000, 840.000000)">
                <g id="编组-20" transform="translate(1080.000000, 0.000000)">
                    <circle id="椭圆形备份-9" stroke-opacity="0.402534965" stroke="#55BC7E" stroke-width="10" fill="url(#linearGradient-1)" cx="55" cy="55" r="60"></circle>
                    <g id="销售分析" transform="translate(34.000000, 32.000000)" fill="#FFFFFF" fill-rule="nonzero">
                        <path d="M8.71028231,16.437717 C8.71028231,17.1874237 9.31376955,17.7935695 10.0634763,17.7935695 L29.7898001,17.7935695 C30.5386167,17.7935695 31.1456525,17.1865337 31.1456525,16.437717 C31.1456525,15.6889004 30.5386167,15.0818646 29.7898001,15.0818646 L10.0634763,15.0818646 C9.31465962,15.0818646 8.70762381,15.6889004 8.70762381,16.437717 L8.71028231,16.437717 Z M10.0634763,25.1550507 L29.7898001,25.1550507 C30.5393509,25.1550507 31.1469818,24.5474198 31.1469818,23.797869 C31.1469818,23.0483182 30.5393509,22.4406873 29.7898001,22.4406873 L10.0634763,22.4406873 C9.31465962,22.4406873 8.70762381,23.0477231 8.70762381,23.7965397 C8.70762381,24.5453564 9.31465962,25.1523922 10.0634763,25.1523922 L10.0634763,25.1550507 Z M14.8541549,2.71702198 L18.6186393,2.71702198 L18.6186393,4.62584953 L15.8165443,4.62584953 C15.0669935,4.62584953 14.4593626,5.23348048 14.4593626,5.98303125 C14.4593626,6.73258202 15.0669935,7.34021297 15.8165443,7.34021297 L24.1324393,7.34021297 C24.8812559,7.34021297 25.4882917,6.73317715 25.4882917,5.98436052 C25.4882917,5.23554389 24.8812559,4.62850808 24.1324393,4.62850808 L21.3330028,4.62850808 L21.3330028,2.71436344 L25.1347067,2.71436344 C25.8842575,2.71436344 26.4918884,2.10673248 26.4918884,1.35718172 C26.4918884,0.607630952 25.8842575,0 25.1347067,0 L14.8541549,0 C14.1046041,0 13.4969732,0.607630952 13.4969732,1.35718172 C13.4969732,2.10673248 14.1046041,2.71436344 14.8541549,2.71436344 L14.8541549,2.71702198 Z M39.841718,36.1666994 C39.841718,36.1666994 39.8284253,9.21979665 39.8151326,9.1480162 C39.7695843,8.39814676 39.5819295,7.66376692 39.2621575,6.98396937 C38.7567228,5.83051347 37.8785347,4.88023526 36.7684524,4.28555716 C35.4391852,3.57041146 34.1816986,3.53850905 34.0407963,3.5358505 L34.0354792,3.5358505 L31.6348228,3.52521371 L31.6295057,3.52521371 C30.879955,3.5237481 30.2711338,4.1301888 30.2696655,4.87973956 C30.2681972,5.62929033 30.8746379,6.23811154 31.6241887,6.2395798 L34.0062353,6.25021394 C34.0753573,6.25287248 34.8197468,6.29540903 35.5561608,6.71811595 C36.4600624,7.23918865 36.9731595,8.10852935 37.1140618,9.37399161 C37.124696,9.51223539 37.1300131,38.508868 37.130013,38.508868 C37.130013,40.4761834 35.61199,42.0766209 33.7483575,42.0766209 L21.5935391,42.0766209 L21.5935391,42.1032063 L6.10757733,42.1032063 C4.24394483,42.1032063 2.72592183,40.5027687 2.72592183,38.5354534 C2.72592183,38.5354534 2.73123892,9.53616221 2.73921451,9.39791843 C2.88277538,8.13511467 3.39587248,7.26311547 4.29977406,6.74204277 C5.03618803,6.31933585 5.77791909,6.2767993 5.847041,6.27414076 L8.23174616,6.26616512 C8.98129692,6.26469685 9.5877376,5.65587564 9.58626933,4.90632488 C9.58480107,4.15677412 8.97597987,3.55033344 8.22642911,3.55180169 L8.22111202,3.55180169 L5.82045564,3.55977732 L5.81248005,3.55977732 C5.67157773,3.55977732 4.41409106,3.59433828 3.08748248,4.31214248 C1.81936167,5.00070286 0.250826492,6.43896985 0.0168754414,9.39525989 C0.00960721467,9.46685632 0.00960721467,9.53900473 0.0168754414,9.61060117 C0.0114242713,9.67972308 0.0114242713,9.7461864 0.0114242713,9.81264976 L0.0114242713,38.5354534 C0.0114242713,41.9968649 2.74453156,44.8175697 6.10757733,44.8175697 L33.7483575,44.7909844 C37.1087447,44.7909844 39.8443765,41.9995234 39.8443765,38.5354534 L39.841718,36.1693579 L39.841718,36.1666994 Z M9.95713489,32.3836052 L23.528952,32.3836052 C24.2072918,32.3836052 24.7571948,31.8337022 24.7571948,31.1553624 C24.7571948,30.4770227 24.2072918,29.9271196 23.528952,29.9271196 L9.95447634,29.9271196 C9.27613657,29.9271196 8.72623354,30.4770227 8.72623354,31.1553624 C8.72623354,31.8337022 9.27613657,32.3836052 9.95447634,32.3836052 L9.95713489,32.3836052 Z M23.2365132,39.4154282 C23.71204,39.8815376 24.4730826,39.8815376 24.9486093,39.4154282 L32.5041635,32.0326787 C32.8175985,31.7268422 32.9440624,31.2770221 32.8359177,30.8526612 C32.727773,30.4283004 32.4014493,30.0938693 31.9798697,29.9753449 C31.5582901,29.8568206 31.1055024,29.9722096 30.7920675,30.2780461 L24.0925613,36.8206988 L22.1943678,34.9597249 C21.7009638,34.5514997 20.9769722,34.5897934 20.5293846,35.0477899 C20.0817971,35.5057864 20.0601548,36.2304669 20.4796133,36.7143574 L23.2365132,39.4154282 Z" id="形状"></path>
                    </g>
                </g>
            </g>
        </g>
    </g>
</svg>