<?xml version="1.0" encoding="UTF-8"?>
<svg width="350px" height="213px" viewBox="0 0 350 213" version="1.1" xmlns="http://www.w3.org/2000/svg" xmlns:xlink="http://www.w3.org/1999/xlink">
    <title>pool空页面配图@2x</title>
    <g id="页面1" stroke="none" stroke-width="1" fill="none" fill-rule="evenodd">
        <g id="pools备份-3" transform="translate(-785.000000, -316.000000)" fill-rule="nonzero">
            <g id="pool空页面配图" transform="translate(785.000000, 316.000000)">
                <ellipse id="椭圆形" fill="#FFFFFF" opacity="0.131231399" cx="174.957958" cy="200.284189" rx="174.051164" ry="12.2577252"></ellipse>
                <path d="M289.406066,19.9601426 L270.267372,96.7709535 L242.050068,89.7406306 C240.373479,87.6007969 240.308312,84.6118037 241.890045,82.4009309 C244.636246,80.8868536 246.632887,78.3031919 247.405488,75.2639264 C248.768562,68.8502765 244.811063,62.5081945 238.450955,60.9138586 C232.090848,59.3195226 225.609672,63.0448637 223.786164,69.3430931 C223.043583,72.3908856 223.591687,75.6100291 225.301044,78.2403453 C225.669024,80.9349178 224.206264,83.5469887 221.716539,84.6412462 L193.509902,77.6002553 L200.625571,49.0735736 C199.41879,46.8180626 196.94282,45.5439784 194.406029,45.8731231 C191.779187,47.590991 188.55785,48.1433305 185.508776,47.3986712 C179.258711,45.5439251 175.576434,39.0975826 177.153602,32.7717674 C178.73077,26.4459521 185.008361,22.4828289 191.397605,23.7793468 C194.436871,24.5519479 197.020532,26.5485893 198.53461,29.2947898 C200.618457,30.7850454 203.408982,30.82333 205.532928,29.3908033 L212.648596,0.864121622 L289.406066,19.9601426 Z" id="路径" fill="#55BC7E"></path>
                <path d="M226.666569,118.416667 C224.529738,116.74535 223.744472,113.868934 224.735631,111.343671 C227.040135,109.210842 228.35407,106.215845 228.362808,103.075841 C228.089586,96.5513167 222.72067,91.4025259 216.190428,91.4025259 C209.660186,91.4025259 204.29127,96.5513167 204.018048,103.075841 C204.031919,106.214759 205.344996,109.207801 207.645225,111.343671 C208.653668,113.865778 207.870399,116.750819 205.724955,118.416667 L176.643529,118.416667 L176.643529,147.498093 C178.304431,149.650533 181.1923,150.438925 183.716524,149.429032 C185.855406,147.133042 188.846517,145.820813 191.984354,145.801854 C198.508879,146.075077 203.657669,151.443992 203.657669,157.974234 C203.657669,164.504477 198.508879,169.873392 191.984354,170.146614 C188.845436,170.132743 185.852395,168.819667 183.716524,166.519437 C181.191261,165.528278 178.314845,166.313544 176.643529,168.450375 L176.643529,197.531802 L255.747995,197.531802 L255.747995,118.416667 L226.666569,118.416667 Z" id="路径" fill="#D7FF1E"></path>
                <path d="M203.591321,157.995571 C203.740608,164.541276 198.571951,169.976949 192.027027,170.157282 C188.888109,170.143411 185.895067,168.830335 183.759197,166.530105 C181.233934,165.538946 178.357518,166.324212 176.686201,168.461044 L176.686201,197.54247 L97.5283934,197.54247 L97.5283934,118.416667 L126.791179,118.416667 C128.795003,120.117526 129.497816,122.903063 128.540758,125.350976 C126.238964,127.481279 124.925277,130.471848 124.913581,133.608138 C125.186803,140.132662 130.555719,145.281453 137.085961,145.281453 C143.616203,145.281453 148.985119,140.132662 149.258341,133.608138 C149.246645,130.471848 147.932958,127.481279 145.631164,125.350976 C144.660344,122.903945 145.365222,120.11022 147.380743,118.416667 L176.643529,118.416667 L176.643529,147.498093 C178.304431,149.650533 181.1923,150.438925 183.716524,149.429032 C185.855406,147.133042 188.846517,145.820813 191.984354,145.801854 C198.556315,145.964819 203.752389,151.423563 203.591321,157.995571 L203.591321,157.995571 Z" id="路径" fill="#55BC7E"></path>
                <path d="M67.2094595,35.6636862 C67.2094595,35.6636862 87.0949249,44.1448799 84.054497,75.1999174 L64.6277628,73.5356832 L67.2094595,35.6636862 Z" id="路径" fill="#68E1FD"></path>
                <path d="M67.2094595,35.6636862 C67.2094595,35.6636862 87.0949249,44.1448799 84.054497,75.1999174 L64.6277628,73.5356832 L67.2094595,35.6636862 Z" id="路径" fill="#FFFFFF" opacity="0.36"></path>
                <path d="M101.62497,63.0168694 C102.544435,69.5166098 108.555471,74.0427911 115.056194,73.1302928 C118.149105,72.607585 120.887362,70.8271386 122.619925,68.2122673 C124.822727,66.8991063 127.609934,67.0948491 129.607575,68.703003 L134.418919,97.7097523 L105.497515,102.414414 C103.790855,104.415039 103.546398,107.279898 104.889429,109.540751 C107.50834,111.271206 109.292847,114.009768 109.818123,117.104482 C110.620909,123.595027 106.155863,129.561526 99.702382,130.621822 C93.2489013,131.682119 87.1095374,127.457908 85.7934084,121.051704 C85.2969268,117.951334 86.1081033,114.783882 88.0337237,112.303806 C88.5810504,109.736092 87.4365996,107.104283 85.1853228,105.753551 L56.3065916,110.500886 L43.5047898,32.4525676 L121.574444,19.6507658 L126.343116,48.6788514 C124.954353,50.8286016 122.380291,51.894756 119.878206,51.3565616 C117.39813,49.4309411 114.230678,48.6197646 111.130308,49.1162462 C108.024868,49.6960138 105.277608,51.4872883 103.494435,54.0950037 C101.711262,56.702719 101.038659,59.9126585 101.62497,63.0168694 Z" id="路径" fill="#D7FF1E"></path>
            </g>
        </g>
    </g>
</svg>