<?xml version="1.0" encoding="UTF-8"?>
<svg width="131px" height="130px" viewBox="0 0 131 130" version="1.1" xmlns="http://www.w3.org/2000/svg" xmlns:xlink="http://www.w3.org/1999/xlink">
    <title>编组 13@2x</title>
    <defs>
        <linearGradient x1="38.6731395%" y1="-12.9943912%" x2="56.4204922%" y2="107.935439%" id="linearGradient-1">
            <stop stop-color="#4DCC8A" offset="0%"></stop>
            <stop stop-color="#1EA152" offset="100%"></stop>
        </linearGradient>
    </defs>
    <g id="页面1" stroke="none" stroke-width="1" fill="none" fill-rule="evenodd">
        <g id="pools项目详情页" transform="translate(-720.000000, -830.000000)">
            <g id="编组-5" transform="translate(350.000000, 840.000000)">
                <g id="编组-13" transform="translate(380.666667, 0.000000)">
                    <circle id="椭圆形备份-6" stroke-opacity="0.402534965" stroke="#55BC7E" stroke-width="10" fill="url(#linearGradient-1)" cx="55" cy="55" r="60"></circle>
                    <g id="本周截止任务" transform="translate(34.750000, 35.000000)" fill="#FFFFFF" fill-rule="nonzero">
                        <path d="M15.6960227,31.1612216 L29.909446,31.1612216 C30.6951349,31.1612216 31.3299006,30.526456 31.3299006,29.740767 C31.3299006,28.9550781 30.6951349,28.3203125 29.909446,28.3203125 L15.6960227,28.3203125 C14.9103338,28.3203125 14.2755682,28.9550781 14.2755682,29.740767 C14.2755682,30.526456 14.9103338,31.1612216 15.6960227,31.1612216 Z M9.96981534,31.1612216 C10.7555043,31.1612216 11.3902699,30.526456 11.3902699,29.740767 C11.3902699,28.9550781 10.7555043,28.3203125 9.96981534,28.3203125 C9.18412642,28.3203125 8.5493608,28.9550781 8.5493608,29.740767 C8.5493608,30.526456 9.18412642,31.1612216 9.96981534,31.1612216 Z M15.6960227,25.5681818 L29.909446,25.5681818 C30.6951349,25.5681818 31.3299006,24.9334162 31.3299006,24.1477273 C31.3299006,23.3620384 30.6951349,22.7272727 29.909446,22.7272727 L15.6960227,22.7272727 C14.9103338,22.7272727 14.2755682,23.3620384 14.2755682,24.1477273 C14.2755682,24.9334162 14.9103338,25.5681818 15.6960227,25.5681818 Z M9.96981534,25.5681818 C10.7555043,25.5681818 11.3902699,24.9334162 11.3902699,24.1477273 C11.3902699,23.3620384 10.7555043,22.7272727 9.96981534,22.7272727 C9.18412642,22.7272727 8.5493608,23.3620384 8.5493608,24.1477273 C8.5493608,24.9334162 9.18412642,25.5681818 9.96981534,25.5681818 Z M15.6960227,19.7753906 L29.909446,19.7753906 C30.6951349,19.7753906 31.3299006,19.140625 31.3299006,18.3549361 C31.3299006,17.5692472 30.6951349,16.9344815 29.909446,16.9344815 L15.6960227,16.9344815 C14.9103338,16.9344815 14.2755682,17.5692472 14.2755682,18.3549361 C14.2755682,19.140625 14.9103338,19.7753906 15.6960227,19.7753906 Z M9.96981534,19.7753906 C10.7555043,19.7753906 11.3902699,19.140625 11.3902699,18.3549361 C11.3902699,17.5692472 10.7555043,16.9344815 9.96981534,16.9344815 C9.18412642,16.9344815 8.5493608,17.5692472 8.5493608,18.3549361 C8.5493608,19.140625 9.18412642,19.7753906 9.96981534,19.7753906 Z" id="形状"></path>
                        <path d="M35.9685724,0.0266335227 L3.94620028,0.0266335227 C1.78444602,0.0266335227 0.0266335227,1.78444602 0.0266335227,3.94620028 L0.0266335227,35.8354048 C0.0266335227,37.9971591 1.78444602,39.7549716 3.94620028,39.7549716 L35.9685724,39.7549716 C38.1303267,39.7549716 39.8881392,37.9971591 39.8881392,35.8354048 L39.8881392,3.94620028 C39.8881392,1.78444602 38.1303267,0.0266335227 35.9685724,0.0266335227 Z M37.0472301,35.8354048 C37.0472301,36.4302202 36.5633878,36.9140625 35.9685724,36.9140625 L3.94620028,36.9140625 C3.35138494,36.9140625 2.86754261,36.4302202 2.86754261,35.8354048 L2.86754261,11.4124645 L37.0472301,11.4124645 L37.0472301,35.8354048 Z M37.0472301,8.5715554 L2.86754261,8.5715554 L2.86754261,3.94620028 C2.86754261,3.35138494 3.35138494,2.86754261 3.94620028,2.86754261 L35.9685724,2.86754261 C36.5633878,2.86754261 37.0472301,3.35138494 37.0472301,3.94620028 L37.0472301,8.5715554 Z" id="形状"></path>
                    </g>
                </g>
            </g>
        </g>
    </g>
</svg>