<?xml version="1.0" encoding="UTF-8"?>
<svg width="130px" height="130px" viewBox="0 0 130 130" version="1.1" xmlns="http://www.w3.org/2000/svg" xmlns:xlink="http://www.w3.org/1999/xlink">
    <title>编组 12@2x</title>
    <defs>
        <linearGradient x1="38.6731395%" y1="-12.9943912%" x2="56.4204922%" y2="107.935439%" id="linearGradient-1">
            <stop stop-color="#4DCC8A" offset="0%"></stop>
            <stop stop-color="#1EA152" offset="100%"></stop>
        </linearGradient>
    </defs>
    <g id="页面1" stroke="none" stroke-width="1" fill="none" fill-rule="evenodd">
        <g id="pools项目详情页" transform="translate(-371.000000, -830.000000)">
            <g id="编组-5" transform="translate(350.000000, 840.000000)">
                <g id="编组-12" transform="translate(31.000000, 0.000000)">
                    <circle id="椭圆形" stroke-opacity="0.402534965" stroke="#55BC7E" stroke-width="10" fill="url(#linearGradient-1)" cx="55" cy="55" r="60"></circle>
                    <g id="未开始-(1)" transform="translate(35.000000, 35.000000)" fill="#FFFFFF" fill-rule="nonzero">
                        <path d="M20.0651696,40.1892274 L5.60615578,40.1892274 C2.51648869,40.1892274 0,37.6491834 0,34.5241834 L0,5.69645101 C0,2.57145101 2.51648869,0.0314070352 5.60615578,0.0314070352 L28.7452889,0.0314070352 C31.834956,0.0314070352 34.3475188,2.57145101 34.3475188,5.69645101 L34.3475188,18.2553392 C34.3475188,19.1661432 33.6094535,19.9042085 32.6986495,19.9042085 C31.7878455,19.9042085 31.0497802,19.1661432 31.0497802,18.2553392 L31.0497802,5.69645101 C31.0497802,4.38913317 30.013348,3.32914573 28.7452889,3.32914573 L5.60615578,3.32914573 C4.33417085,3.32914573 3.30166457,4.39305905 3.30166457,5.69645101 L3.30166457,34.5241834 C3.30166457,35.8315013 4.33809673,36.8914887 5.60615578,36.8914887 L20.0690955,36.8914887 C20.9798995,36.8914887 21.7179648,37.629554 21.7179648,38.540358 C21.7179648,39.4511621 20.9759736,40.1892274 20.0651696,40.1892274 Z" id="路径"></path>
                        <path d="M24.870446,8.05197864 L9.39855528,8.05197864 C8.47597362,8.05197864 7.72220477,8.80574749 7.72220477,9.72832915 C7.72220477,10.6509108 8.47597362,11.4046796 9.39855528,11.4046796 L24.870446,11.4046796 C25.7930276,11.4046796 26.5467965,10.6509108 26.5467965,9.72832915 C26.5467965,8.80574749 25.7930276,8.05197864 24.870446,8.05197864 L24.870446,8.05197864 Z M24.870446,15.852701 L9.39855528,15.852701 C8.47597362,15.852701 7.72220477,16.6064698 7.72220477,17.5290515 C7.72220477,18.4516332 8.47597362,19.205402 9.39855528,19.205402 L24.870446,19.205402 C25.7930276,19.205402 26.5467965,18.4516332 26.5467965,17.5290515 C26.5467965,16.6064698 25.7930276,15.852701 24.870446,15.852701 Z M18.392745,23.6494975 L9.40248116,23.6494975 C8.4798995,23.6494975 7.72613065,24.4032663 7.72613065,25.325848 C7.72613065,26.2484296 8.4798995,27.0021985 9.40248116,27.0021985 L18.392745,27.0021985 C19.3153266,27.0021985 20.0690955,26.2484296 20.0690955,25.325848 C20.0651696,24.4032663 19.3114008,23.6494975 18.392745,23.6494975 Z M30.6257852,25.910804 C29.9780151,25.910804 29.4519472,26.4407977 29.4519472,27.084642 L29.4519472,30.7082286 C29.4519472,31.3559987 29.981941,31.8820666 30.6257852,31.8820666 C31.2696294,31.8820666 31.7996448,31.3520729 31.7996448,30.7082286 L31.7996448,27.084642 C31.803549,26.4407977 31.2735553,25.910804 30.6257852,25.910804 Z" id="形状"></path>
                        <path d="M33.6487123,29.5343907 L30.6257852,29.5343907 C29.9780151,29.5343907 29.4519472,30.0643844 29.4519472,30.7082286 C29.4519472,31.3520729 29.981941,31.8820666 30.6257852,31.8820666 L33.6487123,31.8820666 C34.2964824,31.8820666 34.8225503,31.3520729 34.8225503,30.7082286 C34.8225503,30.0643844 34.2964824,29.5343907 33.6487123,29.5343907 Z" id="路径"></path>
                        <path d="M30.6414887,39.5218279 C28.1721106,39.5218279 25.8479899,38.5599874 24.1009736,36.8129711 C22.3539573,35.0659548 21.3921168,32.7418342 21.3921168,30.272456 C21.3921168,27.8030779 22.3539573,25.4789573 24.1009736,23.731941 C25.8479899,21.9849246 28.1721106,21.0230842 30.6414887,21.0230842 C33.1108668,21.0230842 35.4349874,21.9849246 37.1820038,23.731941 C38.9290201,25.4789573 39.8908606,27.8030779 39.8908606,30.272456 C39.8908606,32.7418342 38.9290201,35.0659548 37.1820038,36.8129711 C35.4349874,38.5599874 33.1108668,39.5218279 30.6414887,39.5218279 Z M30.6414887,23.8889761 C27.1199749,23.8889761 24.2580088,26.7548681 24.2580088,30.272456 C24.2580088,33.7939698 27.1239008,36.6559359 30.6414887,36.6559359 C34.1590766,36.6559359 37.0249686,33.790044 37.0249686,30.272456 C37.0249686,26.7509422 34.1630025,23.8889761 30.6414887,23.8889761 Z" id="形状"></path>
                    </g>
                </g>
            </g>
        </g>
    </g>
</svg>