<?xml version="1.0" encoding="UTF-8"?>
<svg width="131px" height="130px" viewBox="0 0 131 130" version="1.1" xmlns="http://www.w3.org/2000/svg" xmlns:xlink="http://www.w3.org/1999/xlink">
    <title>编组 19@2x</title>
    <defs>
        <linearGradient x1="38.6731395%" y1="-12.9943912%" x2="56.4204922%" y2="107.935439%" id="linearGradient-1">
            <stop stop-color="#4DCC8A" offset="0%"></stop>
            <stop stop-color="#1EA152" offset="100%"></stop>
        </linearGradient>
    </defs>
    <g id="页面1" stroke="none" stroke-width="1" fill="none" fill-rule="evenodd">
        <g id="pools项目详情页" transform="translate(-1070.000000, -830.000000)">
            <g id="编组-5" transform="translate(350.000000, 840.000000)">
                <g id="编组-19" transform="translate(730.333333, 0.000000)">
                    <circle id="椭圆形备份-8" stroke-opacity="0.402534965" stroke="#55BC7E" stroke-width="10" fill="url(#linearGradient-1)" cx="55" cy="55" r="60"></circle>
                    <g id="未开始" transform="translate(35.250000, 33.000000)" fill="#FFFFFF" fill-rule="nonzero">
                        <path d="M29.0861304,24.6966628 C31.1472801,24.6966628 33.084973,25.4991319 34.5423418,26.9565008 C35.9997106,28.4138696 36.8021798,30.3515625 36.8021798,32.4127122 C36.8021798,34.4738619 35.9997106,36.4115548 34.5423418,37.8689236 C33.084973,39.3262924 31.1472801,40.1287616 29.0861304,40.1287616 C27.0249807,40.1287616 25.0877701,39.3258102 23.6304012,37.8684414 C22.1730324,36.4110725 21.3705633,34.4733796 21.3705633,32.4122299 C21.3705633,30.3510802 22.1730324,28.4133873 23.6304012,26.9560185 C25.0877701,25.4991319 27.0249807,24.6966628 29.0861304,24.6966628 M29.0861304,21.6102431 C23.1201775,21.6102431 18.2836613,26.4467593 18.2836613,32.4127122 C18.2836613,38.3786651 23.1201775,43.2151813 29.0861304,43.2151813 C35.0520833,43.2151813 39.8885995,38.3786651 39.8885995,32.4127122 C39.8885995,26.4467593 35.0520833,21.6102431 29.0861304,21.6102431 Z M26.0421489,7.69193673 L8.58458719,7.69193673 C7.73244599,7.69193673 7.04137731,8.3830054 7.04137731,9.2351466 C7.04137731,10.0872878 7.73244599,10.7783565 8.58458719,10.7783565 L26.0421489,10.7783565 C26.8942901,10.7783565 27.5853588,10.0872878 27.5853588,9.2351466 C27.5853588,8.3830054 26.8942901,7.69193673 26.0421489,7.69193673 Z M21.3044946,16.2398727 L8.58458719,16.2398727 C7.73244599,16.2398727 7.04137731,16.9309414 7.04137731,17.7830826 C7.04137731,18.6352238 7.73244599,19.3262924 8.58458719,19.3262924 L21.3044946,19.3262924 C22.1566358,19.3262924 22.8477045,18.6352238 22.8477045,17.7830826 C22.8477045,16.9309414 22.1566358,16.2398727 21.3044946,16.2398727 Z M12.961034,24.7878086 L8.58458719,24.7878086 C7.73244599,24.7878086 7.04137731,25.4788773 7.04137731,26.3310185 C7.04137731,27.1831597 7.73244599,27.8742284 8.58458719,27.8742284 L12.961034,27.8742284 C13.8131752,27.8742284 14.5042438,27.1831597 14.5042438,26.3310185 C14.5042438,25.4788773 13.8131752,24.7878086 12.961034,24.7878086 Z" id="形状"></path>
                        <path d="M24.3118248,30.8695023 C23.4596836,30.8695023 22.768615,31.560571 22.768615,32.4127122 C22.768615,33.2648534 23.4596836,33.9559221 24.3118248,33.9559221 C25.163966,33.9559221 25.8550347,33.2648534 25.8550347,32.4127122 C25.8550347,31.560571 25.1644483,30.8695023 24.3118248,30.8695023 Z M29.0861304,30.8695023 C28.2339892,30.8695023 27.5429205,31.560571 27.5429205,32.4127122 C27.5429205,33.2648534 28.2339892,33.9559221 29.0861304,33.9559221 C29.9382716,33.9559221 30.6293403,33.2648534 30.6293403,32.4127122 C30.6293403,31.560571 29.9387539,30.8695023 29.0861304,30.8695023 Z M33.860436,30.8695023 C33.0082948,30.8695023 32.3172261,31.560571 32.3172261,32.4127122 C32.3172261,33.2648534 33.0082948,33.9559221 33.860436,33.9559221 C34.7125772,33.9559221 35.4036458,33.2648534 35.4036458,32.4127122 C35.4036458,31.560571 34.7130594,30.8695023 33.860436,30.8695023 Z" id="形状"></path>
                        <path d="M14.9701003,43.2098765 L5.40219907,43.2098765 C2.42380401,43.2098765 0.000964506173,40.787037 0.000964506173,37.808642 L0.000964506173,5.40123457 C0.000964506173,2.42283951 2.42380401,0 5.40219907,0 L29.224537,0 C32.2029321,0 34.6257716,2.42283951 34.6257716,5.40123457 L34.6257716,17.0818866 C34.6257716,17.9340278 33.9347029,18.6250965 33.0825617,18.6250965 C32.2304205,18.6250965 31.5393519,17.9340278 31.5393519,17.0818866 L31.5393519,5.40123457 C31.5393519,4.12471065 30.501061,3.08641975 29.224537,3.08641975 L5.40219907,3.08641975 C4.12567515,3.08641975 3.08738426,4.12471065 3.08738426,5.40123457 L3.08738426,37.808642 C3.08738426,39.0851659 4.12567515,40.1234568 5.40219907,40.1234568 L14.9701003,40.1234568 C15.8222415,40.1234568 16.5133102,40.8145255 16.5133102,41.6666667 C16.5133102,42.5188079 15.8222415,43.2098765 14.9701003,43.2098765 Z" id="路径"></path>
                    </g>
                </g>
            </g>
        </g>
    </g>
</svg>