<?xml version="1.0" encoding="UTF-8"?>
<svg width="75px" height="76px" viewBox="0 0 75 76" version="1.1" xmlns="http://www.w3.org/2000/svg" xmlns:xlink="http://www.w3.org/1999/xlink">
    <title>钱袋1＄@2x</title>
    <defs>
        <filter x="-6.6%" y="-11.3%" width="113.2%" height="122.6%" filterUnits="objectBoundingBox" id="filter-1">
            <feOffset dx="0" dy="0" in="SourceAlpha" result="shadowOffsetOuter1"></feOffset>
            <feGaussianBlur stdDeviation="10" in="shadowOffsetOuter1" result="shadowBlurOuter1"></feGaussianBlur>
            <feColorMatrix values="0 0 0 0 0   0 0 0 0 0   0 0 0 0 0  0 0 0 0.599541084 0" type="matrix" in="shadowBlurOuter1" result="shadowMatrixOuter1"></feColorMatrix>
            <feMerge>
                <feMergeNode in="shadowMatrixOuter1"></feMergeNode>
                <feMergeNode in="SourceGraphic"></feMergeNode>
            </feMerge>
        </filter>
    </defs>
    <g id="页面1" stroke="none" stroke-width="1" fill="none" fill-rule="evenodd">
        <g id="pools" transform="translate(-782.000000, -509.000000)" fill="#FFB852" fill-rule="nonzero">
            <g id="还没开始筹集状态备份-17" filter="url(#filter-1)" transform="translate(350.000000, 316.000000)">
                <g id="编组-4" transform="translate(461.000000, 222.000000)">
                    <g id="钱袋1＄">
                        <path d="M9.59243182,2.97838636 L11.2287955,1.15438636 C11.409202,0.954428247 11.4547618,0.66690967 11.345011,0.420973635 C11.2352603,0.175037599 10.9908352,0.0169268663 10.7215227,0.0176565585 L5.72952273,0.0176565585 C5.46046929,0.0174649386 5.2164608,0.175513455 5.10661949,0.421124279 C4.99677818,0.666735103 5.04164652,0.95397422 5.22115909,1.15438636 L6.84661364,2.96311364 C2.90253669,3.61827037 0.0095844801,7.02790357 0.00552272727,11.0260227 L0.00552272727,15.6569318 C0.00731927982,16.8821873 0.999180314,17.8755113 2.22443182,17.8791136 L14.1273409,17.8791136 C15.3542967,17.8779121 16.3488099,16.8838869 16.3506136,15.6569318 L16.3506136,11.0260227 C16.3460696,7.06008047 13.4978792,3.66845817 9.59243182,2.97838636 Z M9.19425,1.38129545 L8.22443182,2.45911364 L7.25570455,1.38129545 L9.19425,1.38129545 Z M14.9880682,15.6569318 C14.9874662,16.1312698 14.6027702,16.5154773 14.1284318,16.5154773 L2.22443182,16.5154773 C1.75051944,16.5148762 1.36648739,16.1308442 1.36588636,15.6569318 L1.36588636,11.0260227 C1.33483474,8.5728955 2.62577146,6.29270744 4.74521785,5.05709244 C6.86466424,3.82147744 9.48492667,3.82147744 11.6043731,5.05709244 C13.7238194,6.29270744 15.0147562,8.5728955 14.9837045,11.0260227 L14.9880682,15.6569318 Z" id="形状"></path>
                        <path d="M8.74043182,14.0543864 L8.74043182,14.8256591 C8.73813398,14.9186795 8.6632704,14.9935431 8.57025,14.9958409 L7.79897727,14.9958409 C7.70595687,14.9935431 7.6310933,14.9186795 7.62879545,14.8256591 L7.62879545,14.1002045 C7.25476752,14.0817648 6.8829313,14.0321379 6.51715909,13.9518409 C6.42794536,13.9450499 6.35876082,13.8711266 6.35788636,13.7816591 L6.35788636,13.1696591 C6.35962575,13.0824258 6.42992583,13.0121257 6.51715909,13.0103864 L6.54006818,13.0103864 C6.88043182,13.0562045 7.73134091,13.1009318 8.04879545,13.1009318 C8.81243182,13.1009318 9.03061364,12.8292955 9.03061364,12.3296591 C9.03061364,12.0023864 8.87134091,11.8311136 8.30406818,11.49075 L7.18043182,10.8209318 C6.38625,10.3562045 6.17134091,9.85656818 6.17134091,9.25547727 C6.17134091,8.47220455 6.55643182,7.86020455 7.62334091,7.69002273 L7.62334091,6.97438636 C7.62857576,6.88141886 7.70586536,6.80892986 7.79897727,6.80965364 L8.57025,6.80965364 C8.6632704,6.81195693 8.73813398,6.88682051 8.74043182,6.97984091 L8.74043182,7.66056818 C9.14295349,7.68010295 9.5437902,7.72565257 9.94043182,7.79693182 C10.0309773,7.81984091 10.0986136,7.87656818 10.0986136,7.95620455 L10.0986136,8.59111364 C10.1023185,8.63228752 10.0884165,8.67310495 10.0603503,8.70345797 C10.0322842,8.73381099 9.99267841,8.75086122 9.95134091,8.75038636 L9.92843182,8.75038636 C9.36115909,8.69365909 8.80588636,8.65984091 8.24952273,8.65984091 C7.61788636,8.65438636 7.35170455,8.88238636 7.35170455,9.25547727 C7.35170455,9.53911364 7.50006818,9.70929545 8.05534091,10.0191136 L9.07643182,10.5863864 C10.0178864,11.1078409 10.2677411,11.6522045 10.2677411,12.3318409 C10.2720682,13.0562045 9.88697727,13.8383864 8.74043182,14.0543864 Z" id="路径"></path>
                    </g>
                </g>
            </g>
        </g>
    </g>
</svg>