<?xml version="1.0" encoding="UTF-8"?>
<svg width="76px" height="76px" viewBox="0 0 76 76" version="1.1" xmlns="http://www.w3.org/2000/svg" xmlns:xlink="http://www.w3.org/1999/xlink">
    <title>公共-日期 @2x</title>
    <defs>
        <filter x="-6.6%" y="-11.3%" width="113.2%" height="122.6%" filterUnits="objectBoundingBox" id="filter-1">
            <feOffset dx="0" dy="0" in="SourceAlpha" result="shadowOffsetOuter1"></feOffset>
            <feGaussianBlur stdDeviation="10" in="shadowOffsetOuter1" result="shadowBlurOuter1"></feGaussianBlur>
            <feColorMatrix values="0 0 0 0 0   0 0 0 0 0   0 0 0 0 0  0 0 0 0.599541084 0" type="matrix" in="shadowBlurOuter1" result="shadowMatrixOuter1"></feColorMatrix>
            <feMerge>
                <feMergeNode in="shadowMatrixOuter1"></feMergeNode>
                <feMergeNode in="SourceGraphic"></feMergeNode>
            </feMerge>
        </filter>
    </defs>
    <g id="页面1" stroke="none" stroke-width="1" fill="none" fill-rule="evenodd">
        <g id="pools" transform="translate(-570.000000, -509.000000)" fill="#FFB852" fill-rule="nonzero">
            <g id="还没开始筹集状态备份-17" filter="url(#filter-1)" transform="translate(350.000000, 316.000000)">
                <g id="编组-3" transform="translate(249.000000, 222.000000)">
                    <g id="公共-日期-">
                        <path d="M13.1301563,14.5714219 L13.8539707,14.5714219 C14.2730156,14.5714219 14.615877,14.3174531 14.615877,14.0063555 C14.615877,13.6952227 14.2730156,13.4412715 13.8539707,13.4412715 L13.1301563,13.4412715 C12.7111113,13.4412715 12.36825,13.6952402 12.36825,14.0063555 C12.3745957,14.3174531 12.7111113,14.5714219 13.1301563,14.5714219 Z M13.1301563,11.2000078 L13.8539707,11.2000078 C14.2730156,11.2000078 14.615877,10.9460391 14.615877,10.6349238 C14.615877,10.3238086 14.2730156,10.0698398 13.8539707,10.0698398 L13.1301563,10.0698398 C12.7111113,10.0698398 12.36825,10.3238086 12.36825,10.6349238 C12.3745957,10.9460391 12.7111113,11.2000078 13.1301563,11.2000078 Z M8.63491992,11.2000078 L9.36508008,11.2000078 C9.78414258,11.2000078 10.1269863,10.9460391 10.1269863,10.6349238 C10.1269863,10.3238086 9.784125,10.0698398 9.36508008,10.0698398 L8.63491992,10.0698398 C8.21585742,10.0698398 7.87301367,10.3238086 7.87301367,10.6349238 C7.87301367,10.9460391 8.215875,11.2000078 8.63491992,11.2000078 Z M4.13968359,11.2000078 L4.86349805,11.2000078 C5.28254297,11.2000078 5.6254043,10.9460391 5.6254043,10.6349238 C5.6254043,10.3238086 5.28254297,10.0698398 4.86349805,10.0698398 L4.13968359,10.0698398 C3.72062109,10.0698398 3.37777734,10.3238086 3.37777734,10.6349238 C3.37777734,10.9460391 3.71429297,11.2000078 4.13968359,11.2000078 Z M8.63491992,14.5714219 L9.36508008,14.5714219 C9.78414258,14.5714219 10.1269863,14.3174531 10.1269863,14.0063555 C10.1269863,13.6952227 9.784125,13.4412715 9.36508008,13.4412715 L8.63491992,13.4412715 C8.21585742,13.4412715 7.87301367,13.6952402 7.87301367,14.0063555 C7.87301367,14.3174531 8.215875,14.5714219 8.63491992,14.5714219 Z M4.13968359,14.5714219 L4.86349805,14.5714219 C5.28254297,14.5714219 5.6254043,14.3174531 5.6254043,14.0063555 C5.6254043,13.6952227 5.28254297,13.4412715 4.86349805,13.4412715 L4.13968359,13.4412715 C3.72062109,13.4412715 3.37777734,13.6952402 3.37777734,14.0063555 C3.37777734,14.3174531 3.71429297,14.5714219 4.13968359,14.5714219 Z" id="形状"></path>
                        <path d="M14.6793691,2.19682617 L13.5428555,2.19682617 L13.5428555,0.552375 C13.5428555,0.247623047 13.2952324,0 12.9904805,0 C12.6920566,0 12.4444512,0.241277344 12.4380879,0.546029297 L12.4380879,2.20317188 L5.60636719,2.20317188 L5.60636719,0.552375 C5.60634961,0.247623047 5.35872656,0 5.05397461,0 C4.75555078,0 4.50792773,0.241277344 4.50792773,0.546029297 L4.50792773,2.20317188 L3.31428516,2.20317188 C1.4857207,2.19682617 0,3.47936133 0,5.89841016 L0,14.5968223 C0,16.3365117 1.32064453,17.7714316 2.99682422,17.9301621 L14.6793691,17.9428535 C16.5079336,17.9428535 17.9936543,16.4444414 17.9936543,14.5968223 L17.9936543,5.54920313 C17.9936543,3.70158398 16.5079512,2.19682617 14.6793691,2.19682617 Z M16.8698496,14.9269922 C16.8698496,15.9745957 15.9619043,16.8190488 14.850791,16.8190488 L3.14920898,16.8190488 C2.03175,16.8190488 1.13015039,15.9682676 1.13015039,14.9269922 L1.13015039,7.82223047 L16.8761953,7.82223047 L16.8698496,14.9269922 L16.8698496,14.9269922 Z M16.8698496,5.21905078 L16.8698496,6.69842578 L1.13015039,6.69842578 L1.13015039,5.21905078 C1.13015039,4.29206836 1.94285742,3.32697656 3.37777734,3.32697656 L4.50792773,3.32697656 L4.50792773,5.01588281 C4.51429102,5.30794336 4.76189648,5.54920312 5.06032031,5.54920312 C5.36507227,5.54920312 5.61269531,5.30158008 5.61269531,4.99682812 L5.61269531,3.32697656 L12.4444336,3.32697656 L12.4444336,5.01588281 C12.4507969,5.30794336 12.6984199,5.54920312 12.9968262,5.54920312 C13.3015957,5.54920312 13.5492012,5.30158008 13.5492012,4.99682812 L13.5492012,3.32697656 L14.6222227,3.32697656 C15.7333359,3.32697656 16.9714336,4.1460293 16.8698496,5.21905078 Z" id="形状"></path>
                    </g>
                </g>
            </g>
        </g>
    </g>
</svg>