<?xml version="1.0" encoding="UTF-8"?>
<svg width="80px" height="75px" viewBox="0 0 80 75" version="1.1" xmlns="http://www.w3.org/2000/svg" xmlns:xlink="http://www.w3.org/1999/xlink">
    <title>w_人@2x</title>
    <defs>
        <filter x="-6.6%" y="-11.3%" width="113.2%" height="122.6%" filterUnits="objectBoundingBox" id="filter-1">
            <feOffset dx="0" dy="0" in="SourceAlpha" result="shadowOffsetOuter1"></feOffset>
            <feGaussianBlur stdDeviation="10" in="shadowOffsetOuter1" result="shadowBlurOuter1"></feGaussianBlur>
            <feColorMatrix values="0 0 0 0 0   0 0 0 0 0   0 0 0 0 0  0 0 0 0.599541084 0" type="matrix" in="shadowBlurOuter1" result="shadowMatrixOuter1"></feColorMatrix>
            <feMerge>
                <feMergeNode in="shadowMatrixOuter1"></feMergeNode>
                <feMergeNode in="SourceGraphic"></feMergeNode>
            </feMerge>
        </filter>
    </defs>
    <g id="页面1" stroke="none" stroke-width="1" fill="none" fill-rule="evenodd">
        <g id="pools" transform="translate(-347.000000, -509.000000)" fill="#FFB852" fill-rule="nonzero">
            <g id="还没开始筹集状态备份-17" filter="url(#filter-1)" transform="translate(350.000000, 316.000000)">
                <g id="编组-2" transform="translate(26.000000, 222.000000)">
                    <g id="w_人">
                        <path d="M21.2928571,16.797632 C20.9170807,16.797632 20.6096273,16.4901786 20.6096273,16.1144022 C20.6096273,12.8383152 17.9450311,10.1771351 14.6723602,10.1771351 C11.3996894,10.1771351 8.73509317,12.8417314 8.73509317,16.1144022 C8.73509317,16.4901786 8.42763975,16.797632 8.05186335,16.797632 C7.67608696,16.797632 7.36863354,16.4901786 7.36863354,16.1144022 C7.36863354,12.0867624 10.6447205,8.81067547 14.6723602,8.81067547 C18.7,8.81067547 21.976087,12.0867624 21.976087,16.1144022 C21.976087,16.4935947 21.6720497,16.797632 21.2928571,16.797632 L21.2928571,16.797632 Z" id="路径"></path>
                        <path d="M14.6689441,10.1771351 C11.8677019,10.1771351 9.58571429,7.89856366 9.58571429,5.09390528 C9.58571429,2.29266304 11.8642857,0.0106754658 14.6689441,0.0106754658 C17.4736025,0.0106754658 19.7521739,2.28924689 19.7521739,5.09390528 C19.7521739,7.89856366 17.4736025,10.1771351 14.6689441,10.1771351 L14.6689441,10.1771351 Z M14.6689441,1.38055124 C12.6192547,1.38055124 10.9521739,3.04763199 10.9521739,5.09732143 C10.9521739,7.14701087 12.6192547,8.81409161 14.6689441,8.81409161 C16.7186335,8.81409161 18.3857143,7.14701087 18.3857143,5.09732143 C18.3857143,3.04763199 16.7186335,1.38055124 14.6689441,1.38055124 Z M0.683229814,14.8709239 C0.307453416,14.8709239 0,14.5634705 0,14.1876941 C0,11.389868 2.27857143,9.11129658 5.07639752,9.11129658 C6.18664596,9.11129658 7.24223602,9.46315994 8.12701863,10.129309 C8.42763975,10.3547748 8.48913043,10.7852096 8.2636646,11.0858307 C8.03819876,11.3864519 7.60776398,11.4479425 7.30714286,11.2224767 C6.6631841,10.7379599 5.87885848,10.476518 5.07298137,10.4777562 C3.02670807,10.4777562 1.36304348,12.1414208 1.36304348,14.1876941 C1.36645963,14.5634705 1.05900621,14.8709239 0.683229814,14.8709239 L0.683229814,14.8709239 Z" id="形状"></path>
                        <path d="M5.07639752,10.4709239 C3.08819876,10.4709239 1.47236025,8.8550854 1.47236025,6.86688665 C1.47236025,4.87868789 3.08819876,3.26284938 5.07639752,3.26284938 C7.06459627,3.26284938 8.68043478,4.87868789 8.68043478,6.86688665 C8.68043478,8.8550854 7.06459627,10.4709239 5.07639752,10.4709239 L5.07639752,10.4709239 Z M5.07639752,4.62930901 C3.8431677,4.62930901 2.83881988,5.63365683 2.83881988,6.86688665 C2.83881988,8.10011646 3.8431677,9.10446429 5.07639752,9.10446429 C6.30962733,9.10446429 7.31397516,8.10011646 7.31397516,6.86688665 C7.31397516,5.63365683 6.31304348,4.62930901 5.07639752,4.62930901 L5.07639752,4.62930901 Z" id="形状"></path>
                    </g>
                </g>
            </g>
        </g>
    </g>
</svg>