<?xml version="1.0" encoding="UTF-8"?>
<svg width="240px" height="129px" viewBox="0 0 240 129" version="1.1" xmlns="http://www.w3.org/2000/svg" xmlns:xlink="http://www.w3.org/1999/xlink">
    <title>注册页配图@2x</title>
    <g id="页面1" stroke="none" stroke-width="1" fill="none" fill-rule="evenodd">
        <g id="注册弹窗" transform="translate(-841.000000, -368.000000)" fill-rule="nonzero">
            <g id="编组-8" transform="translate(727.000000, 271.000000)">
                <g id="注册页配图" transform="translate(114.000000, 97.000000)">
                    <path d="M199.382589,40.9885043 C199.151067,41.246113 198.922917,41.5037054 198.697777,41.7645913 L198.694591,41.7678522 C195.596483,45.3169411 192.787531,49.1084048 190.294666,53.1058957 C190.098985,53.4156783 189.906483,53.7287217 189.717329,54.0417652 C183.837477,63.7148767 179.801896,74.3942408 177.815155,85.5385043 C177.81197,85.5580696 177.808787,85.5743739 177.805441,85.5939391 C177.362009,88.0950261 177.027217,90.6124174 176.801067,93.146113 C176.621785,95.1124174 176.510915,97.0841565 176.468459,99.0613304 C176.28583,107.337417 176.947878,116.559157 171.564111,122.846113 C169.54247,125.206983 166.852252,126.856983 163.910941,127.8972 C163.02504,128.209708 162.121215,128.468867 161.204322,128.673287 L146.81747,128.673287 C146.621785,128.6472 146.4261,128.617852 146.227233,128.588504 C145.01745,128.409157 143.810876,128.210243 142.604449,128.01133 L142.535824,128.001548 L142.36307,128.056983 L141.312998,128.399374 C141.312998,128.366765 141.309815,128.334157 141.309815,128.301548 C141.306473,128.242852 141.303293,128.180896 141.303293,128.1222 C141.300107,128.0472 141.296816,127.9722 141.293423,127.8972 C141.290237,127.8222 141.287054,127.750461 141.287054,127.675461 C141.280533,127.551548 141.274011,127.424374 141.274011,127.2972 C140.576139,107.921113 142.558774,87.8765478 151.839196,70.8776348 C154.987383,65.1255824 159.020303,59.9042304 163.79025,55.4048087 C173.279413,46.4667652 185.52073,40.6624174 198.391291,40.9558957 C198.720704,40.9624011 199.049974,40.9721837 199.382589,40.9885043 Z" id="路径" fill="#F0F0F0"></path>
                    <path d="M199.419518,41.4001696 C184.978334,48.6621098 172.763612,60.5846185 165.38789,74.9950924 C163.793279,78.1106022 162.446811,81.4098163 161.894612,84.8830957 C161.342162,88.3579239 161.826832,91.6481967 163.066924,94.9180435 C164.200617,97.9073413 165.706432,100.833783 166.093732,104.04661 C166.501963,107.433098 165.308534,110.626758 163.105109,113.18311 C160.409155,116.310877 156.750127,118.283413 153.104863,120.08804 C149.057498,122.09173 144.821804,124.108816 141.993802,127.766772 C141.651153,128.209986 140.983471,127.65239 141.325604,127.209848 C146.245839,120.845628 154.833323,119.516883 160.715061,114.357055 C163.459585,111.949383 165.49517,108.70003 165.298128,104.937293 C165.12584,101.646942 163.57561,98.627837 162.401563,95.6110337 C161.168791,92.443337 160.526107,89.2479717 160.88971,85.8417228 C161.261658,82.3573207 162.481973,78.9985109 163.989942,75.8558967 C167.462594,68.7551302 172.030121,62.2445327 177.525202,56.5626065 C183.760733,50.0430892 191.065564,44.6382823 199.12365,40.5820272 C199.622495,40.331175 199.915115,41.1509576 199.419528,41.4001793 L199.419518,41.4001696 Z" id="路径" fill="#FFFFFF"></path>
                    <path d="M167.538232,70.1845435 C162.869176,66.8927851 161.27234,60.7031717 163.766195,55.5634793 C164.012243,55.0607902 164.804951,55.4195217 164.558586,55.9228761 C162.226611,60.7064293 163.727598,66.4757784 168.095142,69.5163457 C168.554139,69.836687 167.994587,70.5030522 167.538218,70.1845435 L167.538232,70.1845435 Z" id="路径" fill="#FFFFFF"></path>
                    <path d="M162.292471,93.4780533 C167.87234,92.5640174 172.902698,89.5804455 176.380487,85.1222641 C176.724698,84.6802793 177.392482,85.237738 177.048685,85.679188 C173.420958,90.3117242 168.179784,93.4059494 162.371152,94.3443457 C161.817457,94.4334098 161.741768,93.5666283 162.292471,93.4780533 L162.292471,93.4780533 Z" id="路径" fill="#FFFFFF"></path>
                    <path d="M184.208866,51.1058511 C185.724643,52.7287672 187.954895,53.4807202 190.14389,53.1069065 C190.696197,53.0108707 190.771282,53.8777761 190.222572,53.9731989 C187.803221,54.3747688 185.342135,53.5510581 183.651942,51.7740489 C183.474751,51.6164881 183.450401,51.3483946 183.596305,51.161488 C183.750698,50.9781219 184.023963,50.9533021 184.208866,51.1058511 L184.208866,51.1058511 Z" id="路径" fill="#FFFFFF"></path>
                    <path d="M239.501159,94.4308793 C239.15867,94.4993576 238.822872,94.564575 238.480386,94.6428359 C238.4772,94.6428359 238.470672,94.6460967 238.467342,94.6460967 C233.8605,95.6080952 229.339183,96.9418073 224.947777,98.6341402 L224.944591,98.6374011 C224.602265,98.7613141 224.256593,98.8950098 223.920633,99.0287054 L223.91745,99.0287054 C213.405692,103.214134 203.759495,109.309203 195.466363,117.005879 C195.449961,117.022184 195.433722,117.035227 195.417483,117.051515 C195.414137,117.058037 195.407609,117.061298 195.404439,117.064559 C195.394565,117.074341 195.381509,117.084124 195.371798,117.093907 C192.083158,120.163742 189.031004,123.47751 186.241363,127.00695 C186.009854,127.300428 185.778346,127.597167 185.546837,127.897167 C185.344624,128.154776 185.14575,128.412385 184.943543,128.673254 L140.921804,128.673254 C140.993452,128.568907 141.074974,128.461298 141.146785,128.35695 C141.146785,128.353689 141.149967,128.353689 141.149967,128.350428 C141.202193,128.275428 141.25442,128.203689 141.296772,128.13195 C141.300114,128.128689 141.303293,128.125428 141.303293,128.122167 C141.319533,128.102602 141.335935,128.079776 141.348991,128.066733 C141.384815,128.004776 141.427167,127.952602 141.459809,127.897167 C141.467335,127.889274 141.473909,127.880524 141.479393,127.871097 C142.258787,126.775428 143.04135,125.679792 143.843524,124.590662 L143.843524,124.587401 C143.848812,124.582784 143.853229,124.577256 143.856567,124.57108 C143.85975,124.564559 143.85975,124.564559 143.866278,124.561298 C149.993452,116.219993 156.867404,108.318907 164.726133,101.712385 C164.960824,101.513472 165.198861,101.308037 165.449954,101.115646 C169.007453,98.1571273 172.800513,95.4939363 176.79135,93.1526022 C176.794533,93.1493413 176.797872,93.1493413 176.801061,93.1460804 C178.982563,91.880863 181.229293,90.7210804 183.541252,89.6667326 C189.508817,86.9745058 195.862465,85.2369984 202.369591,84.5178196 C202.392359,84.5145587 202.411943,84.5145587 202.434714,84.5112978 C202.451113,84.508037 202.467352,84.508037 202.483754,84.5047761 C215.419598,83.1026022 228.658754,85.8449935 238.734815,93.8112978 C238.992443,94.0167489 239.243537,94.2189228 239.501159,94.4308793 Z" id="路径" fill="#F0F0F0"></path>
                    <path d="M149.188128,127.897184 C150.812041,128.079792 152.435954,128.373271 154.06303,128.673271 L148.128346,128.673271 C147.495737,128.621097 146.863004,128.588488 146.227233,128.588488 C145.548992,128.577674 144.870692,128.605982 144.195711,128.673271 L140.921798,128.673271 C140.921798,128.676532 140.918452,128.676532 140.918452,128.679792 L140.918452,128.673271 C140.935459,128.535726 141.021584,128.416415 141.146778,128.356966 C141.174391,128.341124 141.204002,128.329054 141.234822,128.32108 C141.260935,128.314559 141.283702,128.308037 141.309822,128.301515 C141.662022,128.20695 142.010876,128.125428 142.363083,128.05695 C142.444604,128.040646 142.52294,128.024341 142.604462,128.011314 C142.839157,127.965662 143.074027,127.929792 143.30552,127.897184 C145.258456,127.647734 147.235192,127.647734 149.188128,127.897184 Z" id="路径" fill="#FFFFFF"></path>
                    <path d="M239.282534,94.7830533 C239.015198,94.7341402 238.747865,94.688488 238.48036,94.6428359 C232.818453,93.6780243 227.067092,93.3433749 221.331496,93.6450098 C221.041233,93.6580533 220.751024,93.6743576 220.46087,93.6939228 C212.501988,94.1804096 204.666592,95.8975305 197.233696,98.7841402 C197.231994,98.7859889 197.229674,98.7871491 197.227174,98.7874011 C197.146192,98.8146437 197.06673,98.8462108 196.98913,98.8819663 L196.985788,98.8819663 C195.25759,99.5602272 193.556513,100.304792 191.882557,101.115662 C188.73585,102.64501 185.673861,104.467836 183.140146,106.910227 C181.060339,108.926709 179.480328,111.401146 178.526048,114.136314 C178.424941,114.406966 178.330363,114.68416 178.23913,114.961314 C178.170652,115.183053 178.1022,115.404792 178.036917,115.626532 C177.140178,118.69501 176.58257,121.939591 174.955493,124.737401 C174.247117,125.958864 173.309224,127.031821 172.193465,127.897184 C171.831172,128.176966 171.453374,128.436074 171.061875,128.673271 L169.12828,128.673271 C169.660718,128.452685 170.176235,128.193292 170.670672,127.897184 C171.911783,127.162482 172.975166,126.162547 173.784737,124.968923 C175.627099,122.239575 176.207622,118.893923 177.088118,115.779792 C177.238118,115.251532 177.397807,114.736314 177.577249,114.227618 C178.442849,111.569569 179.869582,109.128588 181.760811,107.07001 C184.157583,104.510227 187.154289,102.563488 190.248946,100.962401 C192.238109,99.9352272 194.285863,99.0058793 196.37612,98.1743576 C196.646638,98.0667489 196.917313,97.9591402 197.191337,97.8547924 C210.430577,92.8254741 224.774197,91.4293907 238.734783,93.8113141 C239.005461,93.8537054 239.272793,93.9026185 239.540129,93.9515315 C240.08805,94.0526185 239.827246,94.8808793 239.282534,94.7830533 Z" id="路径" fill="#FFFFFF"></path>
                    <path d="M196.497339,98.5705859 C194.751219,93.131203 197.20281,87.2277288 202.288471,84.6254446 C202.787576,84.3722152 203.20453,85.1359076 202.70476,85.3894663 C197.962779,87.8048634 195.687694,93.315072 197.344314,98.3723576 C197.517926,98.9044793 196.669966,99.0996457 196.497339,98.5705663 L196.497339,98.5705859 Z" id="路径" fill="#FFFFFF"></path>
                    <path d="M178.28459,114.010842 C183.290112,116.640499 189.102881,117.286907 194.563829,115.821173 C195.104765,115.67551 195.302325,116.522661 194.762038,116.668148 C189.076394,118.182823 183.028676,117.49784 177.825828,114.749902 C177.330101,114.487643 177.791537,113.750009 178.284574,114.010842 L178.28459,114.010842 Z" id="路径" fill="#FFFFFF"></path>
                    <path d="M221.294599,93.3741913 C221.527754,95.5826017 222.855757,97.5257609 224.828609,98.5452196 C225.327414,98.8010641 224.865421,99.5384576 224.369863,99.2842761 C222.196374,98.1482907 220.727265,96.0088592 220.447624,93.5724033 C220.401009,93.3399179 220.542978,93.1111994 220.772005,93.0498098 C221.005678,92.9963607 221.238807,93.1410669 221.294599,93.3741913 L221.294599,93.3741913 Z" id="路径" fill="#FFFFFF"></path>
                    <path d="M149.6892,65.3356141 C149.52001,65.3356141 149.350941,65.3265366 149.182712,65.3085326 L111.689002,61.3050489 C111.087011,61.2408394 110.535194,60.9400873 110.154975,60.4689718 C109.774756,59.9978562 109.59729,59.3949796 109.661628,58.7930022 L110.189925,53.8451739 L110.195579,53.8458261 C110.408682,52.6680838 111.494364,51.8542587 112.684601,51.9800609 L150.178314,55.9835446 C152.655184,56.2484203 154.492719,58.4036246 154.362613,60.8912171 C154.232508,63.3788096 152.180171,65.3305665 149.689184,65.3356141 L149.6892,65.3356141 Z" id="路径" fill="#55BC7E"></path>
                    <path d="M154.325905,128.249204 L149.51294,128.249204 C148.252876,128.247792 147.231744,127.22666 147.230332,125.966596 L147.230332,85.8532826 C147.231746,84.5932189 148.252877,83.5720882 149.51294,83.5706739 L154.325905,83.5706739 C155.58597,83.5720864 156.607102,84.5932182 156.608514,85.8532826 L156.608514,125.966596 C156.607103,127.226661 155.585971,128.247794 154.325905,128.249204 Z" id="路径" fill="#55BC7E"></path>
                    <path d="M142.850142,128.249204 L138.037164,128.249204 C136.777099,128.247794 135.755966,127.226661 135.754555,125.966596 L135.754555,85.8532826 C135.755968,84.5932182 136.7771,83.5720864 138.037164,83.5706739 L142.850142,83.5706739 C144.110207,83.5720864 145.131339,84.5932182 145.132751,85.8532826 L145.132751,125.966596 C145.13134,127.226661 144.110208,128.247794 142.850142,128.249204 L142.850142,128.249204 Z" id="路径" fill="#55BC7E"></path>
                    <circle id="椭圆形" fill="#55BC7E" cx="150.594427" cy="25.24065" r="16.6304348"></circle>
                    <path d="M141.451754,32.2218261 C140.37374,32.1918913 139.032095,32.1544761 137.998493,31.3994348 C137.375488,30.9256759 136.99357,30.2009128 136.954992,29.419187 C136.917096,28.8628306 137.141536,28.3207592 137.561628,27.9540293 C138.101472,27.4978533 138.88978,27.3908576 139.739309,27.6405163 L138.859132,21.208262 L139.505253,21.1197326 L140.539999,28.6816696 L140.000436,28.4340815 C139.37489,28.1471609 138.516205,28.0011554 137.98261,28.4520717 C137.717019,28.6910252 137.578031,29.0401507 137.606726,29.3962598 C137.638728,29.9778601 137.922147,30.5167727 138.383211,30.8727261 C139.187563,31.4602565 140.256978,31.5360457 141.469891,31.569962 L141.451754,32.2218261 Z" id="路径" fill="#2F2E41"></path>
                    <rect id="矩形" fill="#2F2E41" x="132.151268" y="21.7630011" width="3.51248152" height="1"></rect>
                    <rect id="矩形" fill="#2F2E41" x="143.238225" y="21.7630011" width="3.51248152" height="1"></rect>
                    <path d="M112.692183,87.8960967 L5.21438152,87.8960967 C2.47812157,87.8930238 0.260711016,85.6756132 0.257638043,82.9393533 L0.257638043,30.570238 C0.260707422,27.8339755 2.47811902,25.616561 5.21438152,25.613488 L112.692183,25.613488 C115.428437,25.6165754 117.645839,27.8339775 117.648926,30.5702315 L117.648926,82.9393598 C117.645835,85.6756112 115.428434,87.8930094 112.692183,87.8960967 Z" id="路径" fill="#CACACA"></path>
                    <path d="M101.59607,59.0374019 L14.1462522,59.0374019 C12.9845063,59.035749 11.9487061,58.3053421 11.5570598,57.2116011 L1.65938152,29.4431054 C1.35961457,28.6020327 1.48704528,27.6677614 2.00110947,26.9376919 C2.51517366,26.2076223 3.35181458,25.7727275 4.24470978,25.7714446 L113.558436,25.6189076 L113.562258,25.6189076 C114.486218,25.6189076 115.348356,26.0831493 115.856983,26.8545127 C116.36561,27.625876 116.452672,28.6011723 116.088714,29.4504293 L115.938887,29.3862652 L116.088714,29.4504293 L104.122533,57.3714652 C103.690079,58.382693 102.695886,59.038258 101.59607,59.0374019 L101.59607,59.0374019 Z" id="路径" fill="#E4E4E4"></path>
                    <path d="M38.9380141,80.5029424 L8.78285217,80.5029424 C7.23561874,80.5029424 5.98133828,79.2486617 5.98133828,77.7014283 C5.98133828,76.1541948 7.23561874,74.8999141 8.78285217,74.8999141 L38.9380141,74.8999141 C40.4852476,74.8999141 41.739528,76.1541948 41.739528,77.7014283 C41.739528,79.2486617 40.4852476,80.5029424 38.9380141,80.5029424 L38.9380141,80.5029424 Z" id="路径" fill="#F2F2F2"></path>
                    <path d="M158.495775,97.3526185 L133.867295,97.3526185 C131.39464,97.3498187 129.390856,95.3460347 129.388057,92.8733804 L129.388057,79.9069663 C129.408922,61.4560985 144.361102,46.5039186 162.81197,46.4830533 L162.975013,46.4830533 L162.975013,92.873387 C162.97221,95.3460386 160.968427,97.3498187 158.495775,97.3526185 L158.495775,97.3526185 Z" id="路径" fill="#CAEA34"></path>
                    <path d="M117.098814,81.5694131 C116.199427,81.5681545 115.3842,81.0400987 115.015311,80.2198435 L113.045335,75.8286587 C112.53096,74.6784091 113.044731,73.3288528 114.193813,72.811875 L148.5975,57.3781533 C150.126196,56.6910787 151.905375,56.8721737 153.264285,57.8531654 C154.623196,58.8341571 155.355184,60.4658631 155.184291,62.1331297 C155.013398,63.8003964 153.965612,65.2496774 152.435948,65.9345935 L118.032254,81.368162 C117.738967,81.5008844 117.420735,81.5694131 117.098814,81.5694131 L117.098814,81.5694131 Z" id="路径" fill="#55BC7E"></path>
                    <path d="M151.320117,23.2528663 C151.877955,22.0809099 151.730666,20.6950154 150.938967,19.6664837 C150.129248,18.5294049 148.883118,17.7802835 147.499076,17.5985641 C144.208308,17.1246652 141.015091,19.1434924 137.745522,18.3912522 C134.754652,17.7031337 133.794346,14.3800272 134.890516,11.7616272 C136.022208,9.0583663 138.741929,7.15450435 141.450916,6.26477935 C144.538158,5.23379227 147.900459,5.40342162 150.868262,6.73988804 C151.219784,6.90340435 151.739403,6.62727391 151.586795,6.18749674 C151.135242,4.88628261 151.704626,3.50581304 152.68049,2.60235 C153.767253,1.59619565 155.327468,1.21935326 156.761142,1.07245761 C159.480114,0.811984305 162.22362,1.11162984 164.82226,1.95289239 C170.081309,3.62532065 174.637043,7.3579337 177.075254,12.3344283 C179.600934,17.5783229 179.846288,23.6330805 177.753186,29.0641402 C175.53434,34.7377696 169.574811,39.5881924 170.8029,46.2451174 C171.334021,48.9023465 173.162462,51.1160655 175.671509,52.1396087 C178.237775,53.1451787 181.141634,52.7513788 183.347403,51.0986609 C183.889435,50.6969557 184.377112,50.2266868 184.798246,49.6996076 C185.185412,49.2113543 184.497668,48.514588 184.106511,49.0078728 C182.405771,51.2253059 179.542596,52.2088327 176.838235,51.5045925 C174.133874,50.8003523 172.114066,48.5452527 171.710879,45.779938 C171.217096,42.5737598 172.761597,39.4472087 174.407263,36.810062 C176.098223,34.1003348 177.967308,31.530062 179.006188,28.4766293 C180.860038,22.9177694 180.427899,16.8499442 177.804972,11.609912 C175.26527,6.596175 170.625232,2.84049783 165.316891,1.08559565 C162.692657,0.208289096 159.920697,-0.140787178 157.160886,0.0585 C154.396053,0.273590217 151.091534,1.38806413 150.51673,4.5036587 C150.388638,5.15158166 150.432338,5.82174606 150.643487,6.44754783 L151.36202,5.89515652 C145.951259,3.37835217 138.748709,4.67707174 135.05998,9.55091739 C133.300415,11.8758065 132.758491,15.2123739 134.680718,17.6228739 C136.792552,20.2711435 140.463574,19.5188217 143.319838,18.9094239 C145.117777,18.525825 147.287788,18.0874402 148.958517,19.1142913 C150.125909,19.8317902 151.171428,21.3847337 150.475435,22.7590728 C150.191658,23.3194337 151.035326,23.8152 151.320134,23.2528207 L151.320117,23.2528663 Z" id="路径" fill="#2F2E41"></path>
                    <path d="M211.852234,128.285227 C211.852234,128.38823 211.811743,128.487099 211.738911,128.559935 C211.666078,128.632771 211.567211,128.673561 211.464209,128.673272 L0.388023913,128.673272 C0.173713418,128.673272 -1.95652174e-05,128.499538 -1.95652174e-05,128.285227 C-1.95652174e-05,128.070917 0.173713418,127.897182 0.388023913,127.897182 L211.464209,127.897182 C211.56721,127.896897 211.666075,127.937688 211.738907,128.010523 C211.811738,128.083359 211.852234,128.182226 211.852234,128.285227 L211.852234,128.285227 Z" id="路径" fill="#F4F4F4"></path>
                    <circle id="椭圆形" fill="#A3A3A3" cx="58.7902304" cy="59.0374076" r="6.84782609"></circle>
                </g>
            </g>
        </g>
    </g>
</svg>