<?xml version="1.0" encoding="UTF-8"?>
<svg width="20px" height="18px" viewBox="0 0 20 18" version="1.1" xmlns="http://www.w3.org/2000/svg" xmlns:xlink="http://www.w3.org/1999/xlink">
    <title>切换账号@2x</title>
    <g id="页面1" stroke="none" stroke-width="1" fill="none" fill-rule="evenodd">
        <g id="bridge" transform="translate(-1197.000000, -470.000000)" fill="#FFFFFF" fill-rule="nonzero">
            <g id="切换账号" transform="translate(1197.000000, 470.000000)">
                <path d="M18.7910217,7.67425059 L1.7455672,7.67425059 C1.15779291,7.67425059 0.667980995,7.18443868 0.667980995,6.59666438 C0.667980995,6.00889009 1.15779291,5.51907817 1.7455672,5.51907817 L18.7910217,5.51907817 C19.378796,5.51907817 19.868608,6.00889009 19.868608,6.59666438 C19.868608,7.18443868 19.378796,7.67425059 18.7910217,7.67425059 Z" id="路径"></path>
                <path d="M14.1476048,0.425034287 L19.5551283,5.8325578 C19.9665703,6.2439998 19.9665703,6.92973648 19.5551283,7.36077096 C19.1436863,7.77221297 18.4579496,7.77221297 18.0269152,7.36077096 L12.6193917,1.95324745 C12.2079496,1.54180545 12.2079496,0.85606877 12.6193917,0.425034287 C13.0504261,0.0135922806 13.7361628,0.0135922806 14.1476048,0.425034287 Z M2.50967379,10.4367898 L7.9171973,15.8443133 C8.3286393,16.2557553 8.3286393,16.941492 7.9171973,17.3725264 C7.50575529,17.7839685 6.82001861,17.7839685 6.38898413,17.3725264 L0.981460619,11.9650029 C0.570018613,11.5535609 0.570018613,10.8678243 0.981460619,10.4367898 C1.39290263,10.0057553 2.0786393,10.0057553 2.50967379,10.4367898 Z" id="形状"></path>
                <path d="M18.7910217,12.2784826 L1.7455672,12.2784826 C1.15779291,12.2784826 0.667980995,11.7886707 0.667980995,11.2008964 C0.667980995,10.6131221 1.15779291,10.1233101 1.7455672,10.1233101 L18.7910217,10.1233101 C19.378796,10.1233101 19.868608,10.6131221 19.868608,11.2008964 C19.868608,11.7886707 19.378796,12.2784826 18.7910217,12.2784826 Z" id="路径"></path>
            </g>
        </g>
    </g>
</svg>