<?xml version="1.0" encoding="UTF-8"?>
<svg width="30px" height="30px" viewBox="0 0 30 30" version="1.1" xmlns="http://www.w3.org/2000/svg" xmlns:xlink="http://www.w3.org/1999/xlink">
    <title>telegram@2x</title>
    <g id="页面1" stroke="none" stroke-width="1" fill="none" fill-rule="evenodd">
        <g id="首页新" transform="translate(-443.000000, -664.000000)" fill="#FFFFFF" fill-rule="nonzero">
            <g id="telegram" transform="translate(443.000000, 664.000000)">
                <path d="M19.9051339,21.8805804 L22.3660714,10.2790179 C22.4665178,9.78794644 22.4079241,9.43638394 22.1902902,9.22433036 C21.9726562,9.01227679 21.6852679,8.97321429 21.328125,9.10714286 L6.86383928,14.6819196 C6.54017855,14.8046875 6.31975445,14.9441964 6.20256697,15.1004464 C6.08537949,15.2566964 6.07142859,15.4045759 6.16071428,15.5440848 C6.24999996,15.6835938 6.4285714,15.7924107 6.69642858,15.8705357 L10.3962054,17.0256696 L18.984375,11.6183036 C19.21875,11.4620536 19.3973214,11.4285714 19.5200893,11.5178571 C19.5982143,11.5736607 19.5758929,11.6573661 19.453125,11.7689732 L12.5055804,18.046875 L12.2377232,21.8638393 C12.4944196,21.8638393 12.7455357,21.7410714 12.9910714,21.4955357 L14.7991071,19.7544643 L18.5491071,22.5167411 C19.2633929,22.9185268 19.7154018,22.7064732 19.9051339,21.8805804 L19.9051339,21.8805804 Z M30,15 C30,17.03125 29.6037946,18.9732143 28.8113839,20.8258929 C28.0189732,22.6785714 26.953125,24.2745536 25.6138393,25.6138393 C24.2745536,26.953125 22.6785714,28.0189732 20.8258929,28.8113839 C18.9732143,29.6037946 17.03125,30 15,30 C12.96875,30 11.0267857,29.6037946 9.17410714,28.8113839 C7.32142856,28.0189732 5.72544643,26.953125 4.38616072,25.6138393 C3.04687502,24.2745536 1.98102681,22.6785714 1.18861608,20.8258929 C0.396205361,18.9732143 0,17.03125 0,15 C0,12.96875 0.396205361,11.0267857 1.18861608,9.17410714 C1.98102681,7.32142856 3.04687502,5.72544643 4.38616072,4.38616072 C5.72544643,3.04687502 7.32142856,1.98102681 9.17410714,1.18861608 C11.0267857,0.396205361 12.96875,0 15,0 C17.03125,0 18.9732143,0.396205361 20.8258929,1.18861608 C22.6785714,1.98102681 24.2745536,3.04687502 25.6138393,4.38616072 C26.953125,5.72544643 28.0189732,7.32142856 28.8113839,9.17410714 C29.6037946,11.0267857 30,12.96875 30,15 Z" id="形状"></path>
            </g>
        </g>
    </g>
</svg>