<?xml version="1.0" encoding="UTF-8"?>
<svg width="30px" height="30px" viewBox="0 0 30 30" version="1.1" xmlns="http://www.w3.org/2000/svg" xmlns:xlink="http://www.w3.org/1999/xlink">
    <title>形状@2x</title>
    <g id="页面1" stroke="none" stroke-width="1" fill="none" fill-rule="evenodd">
        <g id="首页新" transform="translate(-350.000000, -664.000000)" fill="#FFFFFF" fill-rule="nonzero">
            <path d="M380,679 C380,670.715909 373.284091,664 365,664 C356.715909,664 350,670.715909 350,679 C350,687.284091 356.715909,694 365,694 C373.284091,694 380,687.284091 380,679 Z M356.923182,684.330455 C357.182273,684.363182 357.446818,684.380909 357.714091,684.380909 C359.267273,684.383636 360.696364,683.823182 361.829545,682.882273 C360.378636,682.848182 359.155455,681.822727 358.734091,680.415455 C358.935909,680.457727 359.144545,680.482273 359.357273,680.483636 C359.66,680.485 359.951818,680.444091 360.23,680.365 C358.713636,680.029545 357.570909,678.590909 357.570909,676.876818 C357.570909,676.861818 357.570909,676.846818 357.570909,676.831818 C358.018182,677.101818 358.528182,677.265455 359.072273,677.29 C358.184545,676.647727 357.599545,675.556818 357.599545,674.329545 C357.599545,673.680455 357.763182,673.075 358.048182,672.556818 C359.683182,674.718182 362.125455,676.152727 364.878636,676.331364 C364.821364,676.073636 364.792727,675.805 364.792727,675.530909 C364.792727,673.593182 366.276364,672.046818 368.106364,672.076818 C369.059545,672.093182 369.921364,672.530909 370.525455,673.218182 C371.280909,673.073636 371.99,672.795455 372.629545,672.406818 C372.382727,673.215455 371.856364,673.889091 371.171818,674.310455 C371.842727,674.235455 372.480909,674.058182 373.075455,673.789545 C372.630909,674.480909 372.069091,675.085 371.421364,675.567727 C371.428182,675.717727 371.430909,675.867727 371.430909,676.017727 C371.430909,680.618636 368.096818,685.924545 362.001364,685.921821 C360.131818,685.923182 358.389091,685.336818 356.923182,684.330455 Z" id="形状"></path>
        </g>
    </g>
</svg>