<?xml version="1.0" encoding="UTF-8"?>
<svg width="18px" height="18px" viewBox="0 0 18 18" version="1.1" xmlns="http://www.w3.org/2000/svg" xmlns:xlink="http://www.w3.org/1999/xlink">
    <title>钱包@2x</title>
    <g id="页面1" stroke="none" stroke-width="1" fill="none" fill-rule="evenodd">
        <g id="pools备份-6" transform="translate(-1122.000000, -44.000000)" fill="#FFB852" fill-rule="nonzero">
            <g id="钱包" transform="translate(1122.000000, 44.000000)">
                <path d="M14.7272727,0 L3.27272727,0 C1.47272727,0 0,1.47272727 0,3.27272727 L0,14.7272727 C0,16.5272727 1.47272727,18 3.27272727,18 L14.7272727,18 C16.5272727,18 18,16.5272727 18,14.7272727 L18,3.27272727 C18,1.47272727 16.5272727,0 14.7272727,0 Z M16.3636364,11.4545455 L12.2727273,11.4545455 C10.9227273,11.4545455 9.81818183,10.35 9.81818183,9 C9.81818183,7.65 10.9227273,6.54545454 12.2727273,6.54545454 L16.3636364,6.54545454 L16.3636364,11.4545455 Z M12.2727273,4.9090909 C10.0227273,4.9090909 8.18181817,6.75 8.18181817,9 C8.18181817,11.25 10.0227273,13.0909091 12.2727273,13.0909091 L16.3636364,13.0909091 L16.3636364,14.7272727 C16.3636364,15.6272727 15.6272727,16.3636364 14.7272727,16.3636364 L3.27272727,16.3636364 C2.37272727,16.3636364 1.63636363,15.6272727 1.63636363,14.7272727 L1.63636363,3.27272727 C1.63636363,2.37272727 2.37272727,1.63636363 3.27272727,1.63636363 L14.7272727,1.63636363 C15.6272727,1.63636363 16.3636364,2.37272727 16.3636364,3.27272727 L16.3636364,4.9090909 L12.2727273,4.9090909 Z" id="形状"></path>
                <path d="M11.0454545,9 C11.0454545,9.67780401 11.5949233,10.2272727 12.2727273,10.2272727 C12.9505313,10.2272727 13.5,9.67780401 13.5,9 C13.5,8.32219599 12.9505313,7.77272727 12.2727273,7.77272727 C11.5949233,7.77272727 11.0454545,8.32219599 11.0454545,9 L11.0454545,9 Z" id="路径"></path>
            </g>
        </g>
    </g>
</svg>