<?xml version="1.0" encoding="UTF-8"?>
<svg width="22px" height="33px" viewBox="0 0 22 33" version="1.1" xmlns="http://www.w3.org/2000/svg" xmlns:xlink="http://www.w3.org/1999/xlink">
    <title>上导航logo@2x</title>
    <g id="页面1" stroke="none" stroke-width="1" fill="none" fill-rule="evenodd">
        <g id="首页新" transform="translate(-349.000000, -36.000000)">
            <g id="导航" transform="translate(350.000000, 30.000000)">
                <g id="上导航logo" transform="translate(0.000000, 7.000000)">
                    <g id="编组-17备份">
                        <path d="M2.49002692,30.6818489 C2.43834031,30.6818489 2.3871623,30.6716437 2.33942886,30.6518189 C2.13916838,30.5686459 2.04425023,30.3388776 2.12733645,30.1385811 C3.6987005,26.3551168 4.48958835,23.198021 4.5,20.6672934 C4.51636815,16.6909258 0.916364553,12.7636491 0.229091138,9.2781911 C-0.216981831,7.0159639 -0.0116292518,4.02476049 0.845148875,0.304580874 C0.886209469,0.126293424 1.04493268,-2.99517545e-05 1.22788728,-6.59602003e-13 L1.22788728,-6.59602003e-13 L18.735769,-6.59602003e-13 C18.9187236,-2.99517545e-05 19.0774469,0.126293424 19.1185075,0.304580874 C19.9752856,4.02476049 20.1806382,7.0159639 19.7345652,9.2781911 C19.0472918,12.7636491 15.4472882,16.6909258 15.4636563,20.6672934 C15.474068,23.198021 16.2649558,26.3551168 17.8363199,30.1385811 C17.9194061,30.3388776 17.8244879,30.5686459 17.6242275,30.6518189 C17.576494,30.6716437 17.525316,30.6818489 17.4736294,30.6818489 Z" id="形状结合" stroke="#FFB852" stroke-width="1.37454683"></path>
                        <path d="M17.4921884,3.8781857 C18.0496653,6.79716155 17.7709269,9.27194543 16.655973,11.3025373 C14.9835423,14.3484252 13.4563442,17.4445702 13.4679371,20.6765618 C13.4754045,22.7584188 14.0492583,25.3617793 15.1894985,28.4866431 C15.2361432,28.6140184 15.1705357,28.7550139 15.0431068,28.8015118 C15.0161286,28.8113559 14.987633,28.8163925 14.9589149,28.8163925 L5.02110507,28.8163925 C4.99238697,28.8163925 4.96389139,28.8113559 4.93691321,28.8015118 C4.80948433,28.7550139 4.74387678,28.6140184 4.79052146,28.4866431 C5.93076164,25.3617793 6.50461545,22.7584188 6.51208288,20.6765618 C6.52367574,17.4445702 4.99647772,14.3484252 3.32404696,11.3025373 C2.25977284,9.36424506 1.95742224,7.02122415 2.41699515,4.2734746 L2.48783158,3.8781857 L17.4921884,3.8781857 Z M8.6890996,23.3672961 C8.22819241,23.3672961 7.85455331,23.7409352 7.85455331,24.2018424 C7.85455331,24.6627496 8.22819241,25.0363887 8.6890996,25.0363887 C9.15000679,25.0363887 9.52364589,24.6627496 9.52364589,24.2018424 C9.52364589,23.7409352 9.15000679,23.3672961 8.6890996,23.3672961 Z M11.2909204,19.1945646 C10.8300132,19.1945646 10.4563741,19.5682037 10.4563741,20.0291109 C10.4563741,20.4900181 10.8300132,20.8636572 11.2909204,20.8636572 C11.7518276,20.8636572 12.1254667,20.4900181 12.1254667,20.0291109 C12.1254667,19.5682037 11.7518276,19.1945646 11.2909204,19.1945646 Z M9.18000918,14.7272875 C8.71910199,14.7272875 8.34546289,15.1009266 8.34546289,15.5618337 C8.34546289,16.0227409 8.71910199,16.39638 9.18000918,16.39638 C9.64091637,16.39638 10.0145555,16.0227409 10.0145555,15.5618337 C10.0145555,15.1009266 9.64091637,14.7272875 9.18000918,14.7272875 Z M13.3036497,10.2109193 C12.8427425,10.2109193 12.4691034,10.5845584 12.4691034,11.0454656 C12.4691034,11.5063728 12.8427425,11.8800119 13.3036497,11.8800119 C13.7645569,11.8800119 14.138196,11.5063728 14.138196,11.0454656 C14.138196,10.5845584 13.7645569,10.2109193 13.3036497,10.2109193 Z M7.85455331,8.59091768 C7.39364612,8.59091768 7.02000702,8.96455678 7.02000702,9.42546397 C7.02000702,9.88637116 7.39364612,10.2600103 7.85455331,10.2600103 C8.3154605,10.2600103 8.6890996,9.88637116 8.6890996,9.42546397 C8.6890996,8.96455678 8.3154605,8.59091768 7.85455331,8.59091768 Z M12.910922,6.67637031 C12.4500148,6.67637031 12.0763757,7.05000941 12.0763757,7.5109166 C12.0763757,7.97182379 12.4500148,8.34546289 12.910922,8.34546289 C13.3718292,8.34546289 13.7454683,7.97182379 13.7454683,7.5109166 C13.7454683,7.05000941 13.3718292,6.67637031 12.910922,6.67637031 Z" id="形状结合" fill="#D7FF1E"></path>
                    </g>
                    <circle id="椭圆形" fill="#D7FF1E" cx="7.85455331" cy="9.42546397" r="1"></circle>
                    <circle id="椭圆形备份" fill="#D7FF1E" cx="13.3036497" cy="11.0454656" r="1"></circle>
                    <circle id="椭圆形备份-3" fill="#D7FF1E" cx="9.18000918" cy="15.5618337" r="1"></circle>
                    <circle id="椭圆形备份-4" fill="#D7FF1E" cx="11.2909204" cy="20.0291109" r="1"></circle>
                    <circle id="椭圆形备份-5" fill="#D7FF1E" cx="8.6890996" cy="24.2018424" r="1"></circle>
                    <circle id="椭圆形备份-2" fill="#D7FF1E" cx="12.910922" cy="7.5109166" r="1"></circle>
                </g>
            </g>
        </g>
    </g>
</svg>